<?xml version="1.0" encoding="UTF-8" standalone="no"?>
<!-- Created with Inkscape (http://www.inkscape.org/) -->

<svg
   xmlns:dc="http://purl.org/dc/elements/1.1/"
   xmlns:cc="http://creativecommons.org/ns#"
   xmlns:rdf="http://www.w3.org/1999/02/22-rdf-syntax-ns#"
   xmlns:svg="http://www.w3.org/2000/svg"
   xmlns="http://www.w3.org/2000/svg"
   xmlns:sodipodi="http://sodipodi.sourceforge.net/DTD/sodipodi-0.dtd"
   xmlns:inkscape="http://www.inkscape.org/namespaces/inkscape"
   width="170.91072"
   height="80.73214"
   id="svg2"
   version="1.1"
   inkscape:version="0.48.4 r9939"
   sodipodi:docname="wireconn_num_conns_type_from.svg">
  <defs
     id="defs4">
    <marker
       inkscape:stockid="Arrow2Sstart"
       orient="auto"
       refY="0"
       refX="0"
       id="Arrow2Sstart"
       style="overflow:visible">
      <path
         id="path3911"
         style="fill-rule:evenodd;stroke-width:0.625;stroke-linejoin:round"
         d="M 8.7185878,4.0337352 -2.2072895,0.01601326 8.7185884,-4.0017078 c -1.7454984,2.3720609 -1.7354408,5.6174519 -6e-7,8.035443 z"
         transform="matrix(0.3,0,0,0.3,-0.69,0)"
         inkscape:connector-curvature="0" />
    </marker>
    <marker
       inkscape:stockid="Arrow1Mend"
       orient="auto"
       refY="0"
       refX="0"
       id="Arrow1Mend"
       style="overflow:visible">
      <path
         id="path3890"
         d="M 0,0 5,-5 -12.5,0 5,5 0,0 z"
         style="fill-rule:evenodd;stroke:#000000;stroke-width:1pt"
         transform="matrix(-0.4,0,0,-0.4,-4,0)"
         inkscape:connector-curvature="0" />
    </marker>
    <marker
       inkscape:stockid="Arrow2Mend"
       orient="auto"
       refY="0"
       refX="0"
       id="Arrow2Mend"
       style="overflow:visible">
      <path
         id="path3908"
         style="fill-rule:evenodd;stroke-width:0.625;stroke-linejoin:round"
         d="M 8.7185878,4.0337352 -2.2072895,0.01601326 8.7185884,-4.0017078 c -1.7454984,2.3720609 -1.7354408,5.6174519 -6e-7,8.035443 z"
         transform="scale(-0.6,-0.6)"
         inkscape:connector-curvature="0" />
    </marker>
    <marker
       inkscape:stockid="Arrow2Mend"
       orient="auto"
       refY="0"
       refX="0"
       id="Arrow2Mend-3"
       style="overflow:visible">
      <path
         inkscape:connector-curvature="0"
         id="path3908-6"
         style="fill-rule:evenodd;stroke-width:0.625;stroke-linejoin:round"
         d="M 8.7185878,4.0337352 -2.2072895,0.01601326 8.7185884,-4.0017078 c -1.7454984,2.3720609 -1.7354408,5.6174519 -6e-7,8.035443 z"
         transform="scale(-0.6,-0.6)" />
    </marker>
    <marker
       inkscape:stockid="Arrow2Mend"
       orient="auto"
       refY="0"
       refX="0"
       id="Arrow2Mend-9"
       style="overflow:visible">
      <path
         inkscape:connector-curvature="0"
         id="path3908-0"
         style="fill-rule:evenodd;stroke-width:0.625;stroke-linejoin:round"
         d="M 8.7185878,4.0337352 -2.2072895,0.01601326 8.7185884,-4.0017078 c -1.7454984,2.3720609 -1.7354408,5.6174519 -6e-7,8.035443 z"
         transform="scale(-0.6,-0.6)" />
    </marker>
    <marker
       inkscape:stockid="Arrow2Mend"
       orient="auto"
       refY="0"
       refX="0"
       id="Arrow2Mend-9-0"
       style="overflow:visible">
      <path
         inkscape:connector-curvature="0"
         id="path3908-0-1"
         style="fill-rule:evenodd;stroke-width:0.625;stroke-linejoin:round"
         d="M 8.7185878,4.0337352 -2.2072895,0.01601326 8.7185884,-4.0017078 c -1.7454984,2.3720609 -1.7354408,5.6174519 -6e-7,8.035443 z"
         transform="scale(-0.6,-0.6)" />
    </marker>
    <marker
       inkscape:stockid="Arrow2Mend"
       orient="auto"
       refY="0"
       refX="0"
       id="Arrow2Mend-9-9"
       style="overflow:visible">
      <path
         inkscape:connector-curvature="0"
         id="path3908-0-4"
         style="fill-rule:evenodd;stroke-width:0.625;stroke-linejoin:round"
         d="M 8.7185878,4.0337352 -2.2072895,0.01601326 8.7185884,-4.0017078 c -1.7454984,2.3720609 -1.7354408,5.6174519 -6e-7,8.035443 z"
         transform="scale(-0.6,-0.6)" />
    </marker>
    <marker
       inkscape:stockid="Arrow2Mend"
       orient="auto"
       refY="0"
       refX="0"
       id="Arrow2Mend-7"
       style="overflow:visible">
      <path
         inkscape:connector-curvature="0"
         id="path3908-8"
         style="fill-rule:evenodd;stroke-width:0.625;stroke-linejoin:round"
         d="M 8.7185878,4.0337352 -2.2072895,0.01601326 8.7185884,-4.0017078 c -1.7454984,2.3720609 -1.7354408,5.6174519 -6e-7,8.035443 z"
         transform="scale(-0.6,-0.6)" />
    </marker>
    <marker
       inkscape:stockid="Arrow2Mend"
       orient="auto"
       refY="0"
       refX="0"
       id="Arrow2Mend-76"
       style="overflow:visible">
      <path
         inkscape:connector-curvature="0"
         id="path3908-5"
         style="fill-rule:evenodd;stroke-width:0.625;stroke-linejoin:round"
         d="M 8.7185878,4.0337352 -2.2072895,0.01601326 8.7185884,-4.0017078 c -1.7454984,2.3720609 -1.7354408,5.6174519 -6e-7,8.035443 z"
         transform="scale(-0.6,-0.6)" />
    </marker>
    <marker
       inkscape:stockid="Arrow2Mend"
       orient="auto"
       refY="0"
       refX="0"
       id="Arrow2Mend-1"
       style="overflow:visible">
      <path
         inkscape:connector-curvature="0"
         id="path3908-4"
         style="fill-rule:evenodd;stroke-width:0.625;stroke-linejoin:round"
         d="M 8.7185878,4.0337352 -2.2072895,0.01601326 8.7185884,-4.0017078 c -1.7454984,2.3720609 -1.7354408,5.6174519 -6e-7,8.035443 z"
         transform="scale(-0.6,-0.6)" />
    </marker>
    <marker
       inkscape:stockid="Arrow2Mend"
       orient="auto"
       refY="0"
       refX="0"
       id="Arrow2Mend-9-1"
       style="overflow:visible">
      <path
         inkscape:connector-curvature="0"
         id="path3908-0-41"
         style="fill-rule:evenodd;stroke-width:0.625;stroke-linejoin:round"
         d="M 8.7185878,4.0337352 -2.2072895,0.01601326 8.7185884,-4.0017078 c -1.7454984,2.3720609 -1.7354408,5.6174519 -6e-7,8.035443 z"
         transform="scale(-0.6,-0.6)" />
    </marker>
    <marker
       inkscape:stockid="Arrow2Mend"
       orient="auto"
       refY="0"
       refX="0"
       id="Arrow2Mend-9-6"
       style="overflow:visible">
      <path
         inkscape:connector-curvature="0"
         id="path3908-0-8"
         style="fill-rule:evenodd;stroke-width:0.625;stroke-linejoin:round"
         d="M 8.7185878,4.0337352 -2.2072895,0.01601326 8.7185884,-4.0017078 c -1.7454984,2.3720609 -1.7354408,5.6174519 -6e-7,8.035443 z"
         transform="scale(-0.6,-0.6)" />
    </marker>
    <marker
       inkscape:stockid="Arrow2Mend"
       orient="auto"
       refY="0"
       refX="0"
       id="Arrow2Mend-9-99"
       style="overflow:visible">
      <path
         inkscape:connector-curvature="0"
         id="path3908-0-7"
         style="fill-rule:evenodd;stroke-width:0.625;stroke-linejoin:round"
         d="M 8.7185878,4.0337352 -2.2072895,0.01601326 8.7185884,-4.0017078 c -1.7454984,2.3720609 -1.7354408,5.6174519 -6e-7,8.035443 z"
         transform="scale(-0.6,-0.6)" />
    </marker>
    <marker
       inkscape:stockid="Arrow2Mend"
       orient="auto"
       refY="0"
       refX="0"
       id="Arrow2Mend-9-8"
       style="overflow:visible">
      <path
         inkscape:connector-curvature="0"
         id="path3908-0-6"
         style="fill-rule:evenodd;stroke-width:0.625;stroke-linejoin:round"
         d="M 8.7185878,4.0337352 -2.2072895,0.01601326 8.7185884,-4.0017078 c -1.7454984,2.3720609 -1.7354408,5.6174519 -6e-7,8.035443 z"
         transform="scale(-0.6,-0.6)" />
    </marker>
    <marker
       inkscape:stockid="Arrow2Mend"
       orient="auto"
       refY="0"
       refX="0"
       id="Arrow2Mend-4"
       style="overflow:visible">
      <path
         inkscape:connector-curvature="0"
         id="path3908-66"
         style="fill-rule:evenodd;stroke-width:0.625;stroke-linejoin:round"
         d="M 8.7185878,4.0337352 -2.2072895,0.01601326 8.7185884,-4.0017078 c -1.7454984,2.3720609 -1.7354408,5.6174519 -6e-7,8.035443 z"
         transform="scale(-0.6,-0.6)" />
    </marker>
    <marker
       inkscape:stockid="Arrow2Mend"
       orient="auto"
       refY="0"
       refX="0"
       id="Arrow2Mend-2"
       style="overflow:visible">
      <path
         inkscape:connector-curvature="0"
         id="path3908-7"
         style="fill-rule:evenodd;stroke-width:0.625;stroke-linejoin:round"
         d="M 8.7185878,4.0337352 -2.2072895,0.01601326 8.7185884,-4.0017078 c -1.7454984,2.3720609 -1.7354408,5.6174519 -6e-7,8.035443 z"
         transform="scale(-0.6,-0.6)" />
    </marker>
    <marker
       inkscape:stockid="Arrow1Mend"
       orient="auto"
       refY="0"
       refX="0"
       id="Arrow1Mend-4"
       style="overflow:visible">
      <path
         inkscape:connector-curvature="0"
         id="path3890-0"
         d="M 0,0 5,-5 -12.5,0 5,5 0,0 z"
         style="fill-rule:evenodd;stroke:#000000;stroke-width:1pt"
         transform="matrix(-0.4,0,0,-0.4,-4,0)" />
    </marker>
    <marker
       inkscape:stockid="Arrow1Mend"
       orient="auto"
       refY="0"
       refX="0"
       id="Arrow1Mend-3"
       style="overflow:visible">
      <path
         inkscape:connector-curvature="0"
         id="path3890-03"
         d="M 0,0 5,-5 -12.5,0 5,5 0,0 z"
         style="fill-rule:evenodd;stroke:#000000;stroke-width:1pt"
         transform="matrix(-0.4,0,0,-0.4,-4,0)" />
    </marker>
    <marker
       inkscape:stockid="Arrow1Mend"
       orient="auto"
       refY="0"
       refX="0"
       id="Arrow1Mend-48"
       style="overflow:visible">
      <path
         inkscape:connector-curvature="0"
         id="path3890-9"
         d="M 0,0 5,-5 -12.5,0 5,5 0,0 z"
         style="fill-rule:evenodd;stroke:#000000;stroke-width:1pt"
         transform="matrix(-0.4,0,0,-0.4,-4,0)" />
    </marker>
    <marker
       inkscape:stockid="Arrow2Mend"
       orient="auto"
       refY="0"
       refX="0"
       id="Arrow2Mend-2-5"
       style="overflow:visible">
      <path
         inkscape:connector-curvature="0"
         id="path3908-7-9"
         style="fill-rule:evenodd;stroke-width:0.625;stroke-linejoin:round"
         d="M 8.7185878,4.0337352 -2.2072895,0.01601326 8.7185884,-4.0017078 c -1.7454984,2.3720609 -1.7354408,5.6174519 -6e-7,8.035443 z"
         transform="scale(-0.6,-0.6)" />
    </marker>
    <marker
       inkscape:stockid="Arrow1Mend"
       orient="auto"
       refY="0"
       refX="0"
       id="Arrow1Mend-2"
       style="overflow:visible">
      <path
         inkscape:connector-curvature="0"
         id="path3890-3"
         d="M 0,0 5,-5 -12.5,0 5,5 0,0 z"
         style="fill-rule:evenodd;stroke:#000000;stroke-width:1pt"
         transform="matrix(-0.4,0,0,-0.4,-4,0)" />
    </marker>
    <marker
       inkscape:stockid="Arrow1Mend"
       orient="auto"
       refY="0"
       refX="0"
       id="Arrow1Mend-9"
       style="overflow:visible">
      <path
         inkscape:connector-curvature="0"
         id="path3890-34"
         d="M 0,0 5,-5 -12.5,0 5,5 0,0 z"
         style="fill-rule:evenodd;stroke:#000000;stroke-width:1pt"
         transform="matrix(-0.4,0,0,-0.4,-4,0)" />
    </marker>
    <marker
       inkscape:stockid="Arrow2Mend"
       orient="auto"
       refY="0"
       refX="0"
       id="Arrow2Mend-42"
       style="overflow:visible">
      <path
         inkscape:connector-curvature="0"
         id="path3908-57"
         style="fill-rule:evenodd;stroke-width:0.625;stroke-linejoin:round"
         d="M 8.7185878,4.0337352 -2.2072895,0.01601326 8.7185884,-4.0017078 c -1.7454984,2.3720609 -1.7354408,5.6174519 -6e-7,8.035443 z"
         transform="scale(-0.6,-0.6)" />
    </marker>
    <marker
       inkscape:stockid="Arrow2Mend"
       orient="auto"
       refY="0"
       refX="0"
       id="Arrow2Mend-91"
       style="overflow:visible">
      <path
         id="path3908-1"
         style="fill-rule:evenodd;stroke-width:0.625;stroke-linejoin:round"
         d="M 8.7185878,4.0337352 -2.2072895,0.01601326 8.7185884,-4.0017078 c -1.7454984,2.3720609 -1.7354408,5.6174519 -6e-7,8.035443 z"
         transform="scale(-0.6,-0.6)"
         inkscape:connector-curvature="0" />
    </marker>
    <marker
       inkscape:stockid="Arrow2Mend"
       orient="auto"
       refY="0"
       refX="0"
       id="marker8316"
       style="overflow:visible">
      <path
         id="path8318"
         style="fill-rule:evenodd;stroke-width:0.625;stroke-linejoin:round"
         d="M 8.7185878,4.0337352 -2.2072895,0.01601326 8.7185884,-4.0017078 c -1.7454984,2.3720609 -1.7354408,5.6174519 -6e-7,8.035443 z"
         transform="scale(-0.6,-0.6)"
         inkscape:connector-curvature="0" />
    </marker>
    <marker
       inkscape:stockid="Arrow2Mend"
       orient="auto"
       refY="0"
       refX="0"
       id="Arrow2Mend-3-3"
       style="overflow:visible">
      <path
         inkscape:connector-curvature="0"
         id="path3908-6-7"
         style="fill-rule:evenodd;stroke-width:0.625;stroke-linejoin:round"
         d="M 8.7185878,4.0337352 -2.2072895,0.01601326 8.7185884,-4.0017078 c -1.7454984,2.3720609 -1.7354408,5.6174519 -6e-7,8.035443 z"
         transform="scale(-0.6,-0.6)" />
    </marker>
    <marker
       inkscape:stockid="Arrow2Mend"
       orient="auto"
       refY="0"
       refX="0"
       id="marker8322"
       style="overflow:visible">
      <path
         id="path8324"
         style="fill-rule:evenodd;stroke-width:0.625;stroke-linejoin:round"
         d="M 8.7185878,4.0337352 -2.2072895,0.01601326 8.7185884,-4.0017078 c -1.7454984,2.3720609 -1.7354408,5.6174519 -6e-7,8.035443 z"
         transform="scale(-0.6,-0.6)"
         inkscape:connector-curvature="0" />
    </marker>
    <marker
       inkscape:stockid="Arrow2Mend"
       orient="auto"
       refY="0"
       refX="0"
       id="Arrow2Mend-5"
       style="overflow:visible">
      <path
         id="path3908-15"
         style="fill-rule:evenodd;stroke-width:0.625;stroke-linejoin:round"
         d="M 8.7185878,4.0337352 -2.2072895,0.01601326 8.7185884,-4.0017078 c -1.7454984,2.3720609 -1.7354408,5.6174519 -6e-7,8.035443 z"
         transform="scale(-0.6,-0.6)"
         inkscape:connector-curvature="0" />
    </marker>
    <marker
       inkscape:stockid="Arrow2Mend"
       orient="auto"
       refY="0"
       refX="0"
       id="Arrow2Mend-51"
       style="overflow:visible">
      <path
         id="path3908-577"
         style="fill-rule:evenodd;stroke-width:0.625;stroke-linejoin:round"
         d="M 8.7185878,4.0337352 -2.2072895,0.01601326 8.7185884,-4.0017078 c -1.7454984,2.3720609 -1.7354408,5.6174519 -6e-7,8.035443 z"
         transform="scale(-0.6,-0.6)"
         inkscape:connector-curvature="0" />
    </marker>
    <marker
       inkscape:stockid="Arrow2Mend"
       orient="auto"
       refY="0"
       refX="0"
       id="marker8506"
       style="overflow:visible">
      <path
         id="path8508"
         style="fill-rule:evenodd;stroke-width:0.625;stroke-linejoin:round"
         d="M 8.7185878,4.0337352 -2.2072895,0.01601326 8.7185884,-4.0017078 c -1.7454984,2.3720609 -1.7354408,5.6174519 -6e-7,8.035443 z"
         transform="scale(-0.6,-0.6)"
         inkscape:connector-curvature="0" />
    </marker>
    <marker
       inkscape:stockid="Arrow2Mend"
       orient="auto"
       refY="0"
       refX="0"
       id="Arrow2Mend-3-6"
       style="overflow:visible">
      <path
         inkscape:connector-curvature="0"
         id="path3908-6-2"
         style="fill-rule:evenodd;stroke-width:0.625;stroke-linejoin:round"
         d="M 8.7185878,4.0337352 -2.2072895,0.01601326 8.7185884,-4.0017078 c -1.7454984,2.3720609 -1.7354408,5.6174519 -6e-7,8.035443 z"
         transform="scale(-0.6,-0.6)" />
    </marker>
    <marker
       inkscape:stockid="Arrow2Mend"
       orient="auto"
       refY="0"
       refX="0"
       id="Arrow2Mend-92"
       style="overflow:visible">
      <path
         id="path3908-9"
         style="fill-rule:evenodd;stroke-width:0.625;stroke-linejoin:round"
         d="M 8.7185878,4.0337352 -2.2072895,0.01601326 8.7185884,-4.0017078 c -1.7454984,2.3720609 -1.7354408,5.6174519 -6e-7,8.035443 z"
         transform="scale(-0.6,-0.6)"
         inkscape:connector-curvature="0" />
    </marker>
    <marker
       inkscape:stockid="Arrow2Mend"
       orient="auto"
       refY="0"
       refX="0"
       id="Arrow2Mend-17"
       style="overflow:visible">
      <path
         id="path3908-87"
         style="fill-rule:evenodd;stroke-width:0.625;stroke-linejoin:round"
         d="M 8.7185878,4.0337352 -2.2072895,0.01601326 8.7185884,-4.0017078 c -1.7454984,2.3720609 -1.7354408,5.6174519 -6e-7,8.035443 z"
         transform="scale(-0.6,-0.6)"
         inkscape:connector-curvature="0" />
    </marker>
    <marker
       inkscape:stockid="Arrow2Mend"
       orient="auto"
       refY="0"
       refX="0"
       id="Arrow2Mend-12"
       style="overflow:visible">
      <path
         id="path3908-86"
         style="fill-rule:evenodd;stroke-width:0.625;stroke-linejoin:round"
         d="M 8.7185878,4.0337352 -2.2072895,0.01601326 8.7185884,-4.0017078 c -1.7454984,2.3720609 -1.7354408,5.6174519 -6e-7,8.035443 z"
         transform="scale(-0.6,-0.6)"
         inkscape:connector-curvature="0" />
    </marker>
    <marker
       inkscape:stockid="Arrow2Mend"
       orient="auto"
       refY="0"
       refX="0"
       id="Arrow2Mend-79"
       style="overflow:visible">
      <path
         id="path3908-49"
         style="fill-rule:evenodd;stroke-width:0.625;stroke-linejoin:round"
         d="M 8.7185878,4.0337352 -2.2072895,0.01601326 8.7185884,-4.0017078 c -1.7454984,2.3720609 -1.7354408,5.6174519 -6e-7,8.035443 z"
         transform="scale(-0.6,-0.6)"
         inkscape:connector-curvature="0" />
    </marker>
    <marker
       inkscape:stockid="Arrow2Mend"
       orient="auto"
       refY="0"
       refX="0"
       id="Arrow2Mend-45"
       style="overflow:visible">
      <path
         id="path3908-07"
         style="fill-rule:evenodd;stroke-width:0.625;stroke-linejoin:round"
         d="M 8.7185878,4.0337352 -2.2072895,0.01601326 8.7185884,-4.0017078 c -1.7454984,2.3720609 -1.7354408,5.6174519 -6e-7,8.035443 z"
         transform="scale(-0.6,-0.6)"
         inkscape:connector-curvature="0" />
    </marker>
    <marker
       inkscape:stockid="Arrow2Mend"
       orient="auto"
       refY="0"
       refX="0"
       id="Arrow2Mend-8"
       style="overflow:visible">
      <path
         id="path3908-71"
         style="fill-rule:evenodd;stroke-width:0.625;stroke-linejoin:round"
         d="M 8.7185878,4.0337352 -2.2072895,0.01601326 8.7185884,-4.0017078 c -1.7454984,2.3720609 -1.7354408,5.6174519 -6e-7,8.035443 z"
         transform="scale(-0.6,-0.6)"
         inkscape:connector-curvature="0" />
    </marker>
    <marker
       inkscape:stockid="Arrow1Mend"
       orient="auto"
       refY="0"
       refX="0"
       id="Arrow1Mend-7"
       style="overflow:visible">
      <path
         id="path3890-340"
         d="M 0,0 5,-5 -12.5,0 5,5 0,0 z"
         style="fill-rule:evenodd;stroke:#000000;stroke-width:1pt"
         transform="matrix(-0.4,0,0,-0.4,-4,0)"
         inkscape:connector-curvature="0" />
    </marker>
    <marker
       inkscape:stockid="Arrow2Mend"
       orient="auto"
       refY="0"
       refX="0"
       id="Arrow2Mend-84"
       style="overflow:visible">
      <path
         id="path3908-63"
         style="fill-rule:evenodd;stroke-width:0.625;stroke-linejoin:round"
         d="M 8.7185878,4.0337352 -2.2072895,0.01601326 8.7185884,-4.0017078 c -1.7454984,2.3720609 -1.7354408,5.6174519 -6e-7,8.035443 z"
         transform="scale(-0.6,-0.6)"
         inkscape:connector-curvature="0" />
    </marker>
    <marker
       inkscape:stockid="Arrow2Mend"
       orient="auto"
       refY="0"
       refX="0"
       id="Arrow2Mend-36"
       style="overflow:visible">
      <path
         id="path3908-75"
         style="fill-rule:evenodd;stroke-width:0.625;stroke-linejoin:round"
         d="M 8.7185878,4.0337352 -2.2072895,0.01601326 8.7185884,-4.0017078 c -1.7454984,2.3720609 -1.7354408,5.6174519 -6e-7,8.035443 z"
         transform="scale(-0.6,-0.6)"
         inkscape:connector-curvature="0" />
    </marker>
    <marker
       inkscape:stockid="Arrow2Mend"
       orient="auto"
       refY="0"
       refX="0"
       id="Arrow2Mend-35"
       style="overflow:visible">
      <path
         id="path3908-62"
         style="fill-rule:evenodd;stroke-width:0.625;stroke-linejoin:round"
         d="M 8.7185878,4.0337352 -2.2072895,0.01601326 8.7185884,-4.0017078 c -1.7454984,2.3720609 -1.7354408,5.6174519 -6e-7,8.035443 z"
         transform="scale(-0.6,-0.6)"
         inkscape:connector-curvature="0" />
    </marker>
    <marker
       inkscape:stockid="Arrow2Mend"
       orient="auto"
       refY="0"
       refX="0"
       id="Arrow2Mend-912"
       style="overflow:visible">
      <path
         id="path3908-70"
         style="fill-rule:evenodd;stroke-width:0.625;stroke-linejoin:round"
         d="M 8.7185878,4.0337352 -2.2072895,0.01601326 8.7185884,-4.0017078 c -1.7454984,2.3720609 -1.7354408,5.6174519 -6e-7,8.035443 z"
         transform="scale(-0.6,-0.6)"
         inkscape:connector-curvature="0" />
    </marker>
  </defs>
  <sodipodi:namedview
     id="base"
     pagecolor="#ffffff"
     bordercolor="#666666"
     borderopacity="1.0"
     inkscape:pageopacity="0.0"
     inkscape:pageshadow="2"
     inkscape:zoom="3.959798"
     inkscape:cx="106.37788"
     inkscape:cy="75.262575"
     inkscape:document-units="px"
     inkscape:current-layer="layer1"
     showgrid="false"
     showguides="true"
     inkscape:guide-bbox="true"
     fit-margin-left="5"
     fit-margin-top="5"
     fit-margin-right="5"
     fit-margin-bottom="5"
     inkscape:window-width="1198"
     inkscape:window-height="1496"
     inkscape:window-x="1080"
     inkscape:window-y="289"
     inkscape:window-maximized="0" />
  <metadata
     id="metadata7">
    <rdf:RDF>
      <cc:Work
         rdf:about="">
        <dc:format>image/svg+xml</dc:format>
        <dc:type
           rdf:resource="http://purl.org/dc/dcmitype/StillImage" />
        <dc:title />
      </cc:Work>
    </rdf:RDF>
  </metadata>
  <g
     inkscape:label="Layer 1"
     inkscape:groupmode="layer"
     id="layer1"
     transform="translate(-87.217952,-671.66581)">
    <path
       sodipodi:type="arc"
       style="fill:#000000;fill-opacity:1;stroke:none"
       id="path3292"
       sodipodi:cx="37.249374"
       sodipodi:cy="36.97205"
       sodipodi:rx="2.1465743"
       sodipodi:ry="2.1465743"
       d="m 39.395949,36.97205 c 0,1.18552 -0.961054,2.146574 -2.146575,2.146574 -1.18552,0 -2.146574,-0.961054 -2.146574,-2.146574 0,-1.185521 0.961054,-2.146575 2.146574,-2.146575 1.185521,0 2.146575,0.961054 2.146575,2.146575 z"
       transform="translate(64.503669,646.78685)" />
    <path
       transform="translate(64.503669,660.20203)"
       d="m 39.395949,36.97205 c 0,1.18552 -0.961054,2.146574 -2.146575,2.146574 -1.18552,0 -2.146574,-0.961054 -2.146574,-2.146574 0,-1.185521 0.961054,-2.146575 2.146574,-2.146575 1.185521,0 2.146575,0.961054 2.146575,2.146575 z"
       sodipodi:ry="2.1465743"
       sodipodi:rx="2.1465743"
       sodipodi:cy="36.97205"
       sodipodi:cx="37.249374"
       id="path4296"
       style="fill:#000000;fill-opacity:1;stroke:none"
       sodipodi:type="arc" />
    <path
       sodipodi:type="arc"
       style="fill:#000000;fill-opacity:1;stroke:none"
       id="path4298"
       sodipodi:cx="37.249374"
       sodipodi:cy="36.97205"
       sodipodi:rx="2.1465743"
       sodipodi:ry="2.1465743"
       d="m 39.395949,36.97205 c 0,1.18552 -0.961054,2.146574 -2.146575,2.146574 -1.18552,0 -2.146574,-0.961054 -2.146574,-2.146574 0,-1.185521 0.961054,-2.146575 2.146574,-2.146575 1.185521,0 2.146575,0.961054 2.146575,2.146575 z"
       transform="translate(64.503669,673.61721)" />
    <path
       transform="translate(64.503669,687.03238)"
       d="m 39.395949,36.97205 c 0,1.18552 -0.961054,2.146574 -2.146575,2.146574 -1.18552,0 -2.146574,-0.961054 -2.146574,-2.146574 0,-1.185521 0.961054,-2.146575 2.146574,-2.146575 1.185521,0 2.146575,0.961054 2.146575,2.146575 z"
       sodipodi:ry="2.1465743"
       sodipodi:rx="2.1465743"
       sodipodi:cy="36.97205"
       sodipodi:cx="37.249374"
       id="path4300"
       style="fill:#000000;fill-opacity:1;stroke:none"
       sodipodi:type="arc" />
    <path
       sodipodi:type="arc"
       style="fill:#000000;fill-opacity:1;stroke:none"
       id="path4302"
       sodipodi:cx="37.249374"
       sodipodi:cy="36.97205"
       sodipodi:rx="2.1465743"
       sodipodi:ry="2.1465743"
       d="m 39.395949,36.97205 c 0,1.18552 -0.961054,2.146574 -2.146575,2.146574 -1.18552,0 -2.146574,-0.961054 -2.146574,-2.146574 0,-1.185521 0.961054,-2.146575 2.146574,-2.146575 1.185521,0 2.146575,0.961054 2.146575,2.146575 z"
       transform="translate(64.503669,700.44756)" />
    <path
       transform="translate(110.57509,660.20203)"
       d="m 39.395949,36.97205 c 0,1.18552 -0.961054,2.146574 -2.146575,2.146574 -1.18552,0 -2.146574,-0.961054 -2.146574,-2.146574 0,-1.185521 0.961054,-2.146575 2.146574,-2.146575 1.185521,0 2.146575,0.961054 2.146575,2.146575 z"
       sodipodi:ry="2.1465743"
       sodipodi:rx="2.1465743"
       sodipodi:cy="36.97205"
       sodipodi:cx="37.249374"
       id="path4304"
       style="fill:#000000;fill-opacity:1;stroke:none"
       sodipodi:type="arc" />
    <path
       sodipodi:type="arc"
       style="fill:#000000;fill-opacity:1;stroke:none"
       id="path4306"
       sodipodi:cx="37.249374"
       sodipodi:cy="36.97205"
       sodipodi:rx="2.1465743"
       sodipodi:ry="2.1465743"
       d="m 39.395949,36.97205 c 0,1.18552 -0.961054,2.146574 -2.146575,2.146574 -1.18552,0 -2.146574,-0.961054 -2.146574,-2.146574 0,-1.185521 0.961054,-2.146575 2.146574,-2.146575 1.185521,0 2.146575,0.961054 2.146575,2.146575 z"
       transform="translate(110.57509,687.03238)" />
    <path
       style="fill:none;stroke:#000000;stroke-width:0.625;stroke-linecap:butt;stroke-linejoin:miter;stroke-miterlimit:4;stroke-opacity:1;stroke-dasharray:none;marker-end:url(#Arrow2Mend)"
       d="m 103.78231,684.02538 41.8607,11.78202"
       id="path4578"
       inkscape:connector-curvature="0"
       sodipodi:nodetypes="cc" />
    <path
       style="fill:none;stroke:#000000;stroke-width:0.625;stroke-linecap:butt;stroke-linejoin:miter;stroke-miterlimit:4;stroke-opacity:1;stroke-dasharray:none;marker-end:url(#Arrow2Mend)"
       d="m 103.74618,724.09221 41.31963,0"
       id="path4578-9"
       inkscape:connector-curvature="0"
       sodipodi:nodetypes="cc" />
    <path
       sodipodi:nodetypes="cc"
       inkscape:connector-curvature="0"
       id="path7140"
       d="m 103.53717,697.7981 42.78569,24.11632"
       style="fill:none;stroke:#000000;stroke-width:0.625;stroke-linecap:butt;stroke-linejoin:miter;stroke-miterlimit:4;stroke-opacity:1;stroke-dasharray:none;marker-end:url(#Arrow2Mend)" />
    <path
       style="fill:none;stroke:#000000;stroke-width:0.625;stroke-linecap:butt;stroke-linejoin:miter;stroke-miterlimit:4;stroke-opacity:1;stroke-dasharray:none;marker-end:url(#Arrow2Mend)"
       d="m 103.16081,709.44618 41.94565,-11.84594"
       id="path7142"
       inkscape:connector-curvature="0"
       sodipodi:nodetypes="cc" />
    <path
       sodipodi:nodetypes="cc"
       inkscape:connector-curvature="0"
       id="path7144"
       d="m 103.43217,736.58553 42.99059,-36.94934"
       style="fill:none;stroke:#000000;stroke-width:0.625;stroke-linecap:butt;stroke-linejoin:miter;stroke-miterlimit:4;stroke-opacity:1;stroke-dasharray:none;marker-end:url(#Arrow2Mend)" />
    <path
       transform="matrix(-1,0,0,1,280.78813,645.89399)"
       d="m 39.395949,36.97205 c 0,1.18552 -0.961054,2.146574 -2.146575,2.146574 -1.18552,0 -2.146574,-0.961054 -2.146574,-2.146574 0,-1.185521 0.961054,-2.146575 2.146574,-2.146575 1.185521,0 2.146575,0.961054 2.146575,2.146575 z"
       sodipodi:ry="2.1465743"
       sodipodi:rx="2.1465743"
       sodipodi:cy="36.97205"
       sodipodi:cx="37.249374"
       id="path7154"
       style="fill:#000000;fill-opacity:1;stroke:none"
       sodipodi:type="arc" />
    <path
       sodipodi:type="arc"
       style="fill:#000000;fill-opacity:1;stroke:none"
       id="path7156"
       sodipodi:cx="37.249374"
       sodipodi:cy="36.97205"
       sodipodi:rx="2.1465743"
       sodipodi:ry="2.1465743"
       d="m 39.395949,36.97205 c 0,1.18552 -0.961054,2.146574 -2.146575,2.146574 -1.18552,0 -2.146574,-0.961054 -2.146574,-2.146574 0,-1.185521 0.961054,-2.146575 2.146574,-2.146575 1.185521,0 2.146575,0.961054 2.146575,2.146575 z"
       transform="matrix(-1,0,0,1,280.78813,659.30917)" />
    <path
       transform="matrix(-1,0,0,1,280.78813,672.72435)"
       d="m 39.395949,36.97205 c 0,1.18552 -0.961054,2.146574 -2.146575,2.146574 -1.18552,0 -2.146574,-0.961054 -2.146574,-2.146574 0,-1.185521 0.961054,-2.146575 2.146574,-2.146575 1.185521,0 2.146575,0.961054 2.146575,2.146575 z"
       sodipodi:ry="2.1465743"
       sodipodi:rx="2.1465743"
       sodipodi:cy="36.97205"
       sodipodi:cx="37.249374"
       id="path7158"
       style="fill:#000000;fill-opacity:1;stroke:none"
       sodipodi:type="arc" />
    <path
       sodipodi:type="arc"
       style="fill:#000000;fill-opacity:1;stroke:none"
       id="path7160"
       sodipodi:cx="37.249374"
       sodipodi:cy="36.97205"
       sodipodi:rx="2.1465743"
       sodipodi:ry="2.1465743"
       d="m 39.395949,36.97205 c 0,1.18552 -0.961054,2.146574 -2.146575,2.146574 -1.18552,0 -2.146574,-0.961054 -2.146574,-2.146574 0,-1.185521 0.961054,-2.146575 2.146574,-2.146575 1.185521,0 2.146575,0.961054 2.146575,2.146575 z"
       transform="matrix(-1,0,0,1,280.78813,686.13952)" />
    <path
       transform="matrix(-1,0,0,1,280.78813,699.5547)"
       d="m 39.395949,36.97205 c 0,1.18552 -0.961054,2.146574 -2.146575,2.146574 -1.18552,0 -2.146574,-0.961054 -2.146574,-2.146574 0,-1.185521 0.961054,-2.146575 2.146574,-2.146575 1.185521,0 2.146575,0.961054 2.146575,2.146575 z"
       sodipodi:ry="2.1465743"
       sodipodi:rx="2.1465743"
       sodipodi:cy="36.97205"
       sodipodi:cx="37.249374"
       id="path7162"
       style="fill:#000000;fill-opacity:1;stroke:none"
       sodipodi:type="arc" />
    <path
       sodipodi:type="arc"
       style="fill:#000000;fill-opacity:1;stroke:none"
       id="path7164"
       sodipodi:cx="37.249374"
       sodipodi:cy="36.97205"
       sodipodi:rx="2.1465743"
       sodipodi:ry="2.1465743"
       d="m 39.395949,36.97205 c 0,1.18552 -0.961054,2.146574 -2.146575,2.146574 -1.18552,0 -2.146574,-0.961054 -2.146574,-2.146574 0,-1.185521 0.961054,-2.146575 2.146574,-2.146575 1.185521,0 2.146575,0.961054 2.146575,2.146575 z"
       transform="matrix(-1,0,0,1,234.7167,659.30917)" />
    <path
       transform="matrix(-1,0,0,1,234.7167,686.13952)"
       d="m 39.395949,36.97205 c 0,1.18552 -0.961054,2.146574 -2.146575,2.146574 -1.18552,0 -2.146574,-0.961054 -2.146574,-2.146574 0,-1.185521 0.961054,-2.146575 2.146574,-2.146575 1.185521,0 2.146575,0.961054 2.146575,2.146575 z"
       sodipodi:ry="2.1465743"
       sodipodi:rx="2.1465743"
       sodipodi:cy="36.97205"
       sodipodi:cx="37.249374"
       id="path7166"
       style="fill:#000000;fill-opacity:1;stroke:none"
       sodipodi:type="arc" />
    <path
       sodipodi:nodetypes="cc"
       inkscape:connector-curvature="0"
       id="path7178"
       d="m 199.41081,695.69618 41.94565,-11.84594"
       style="fill:none;stroke:#000000;stroke-width:0.625;stroke-linecap:butt;stroke-linejoin:miter;stroke-miterlimit:4;stroke-opacity:1;stroke-dasharray:none;marker-end:url(#Arrow2Mend)" />
    <path
       style="fill:none;stroke:#000000;stroke-width:0.625;stroke-linecap:butt;stroke-linejoin:miter;stroke-miterlimit:4;stroke-opacity:1;stroke-dasharray:none;marker-end:url(#Arrow2Mend)"
       d="m 198.30285,722.33985 42.90059,-24.50406"
       id="path7180"
       inkscape:connector-curvature="0"
       sodipodi:nodetypes="cc" />
    <g
       id="g7186">
      <text
         xml:space="preserve"
         style="font-size:14.22676659px;font-style:normal;font-weight:normal;text-align:center;line-height:125%;letter-spacing:0px;word-spacing:0px;text-anchor:middle;fill:#000000;fill-opacity:1;stroke:none;font-family:Sans"
         x="101.97093"
         y="745.65613"
         id="text4571-2-26-5-4-0-9-3"
         sodipodi:linespacing="125%"><tspan
           sodipodi:role="line"
           id="tspan4573-8-17-4-0-3-9-6"
           x="101.97093"
           y="745.65613"
           style="font-size:5.69070673px;text-align:center;text-anchor:middle">from</tspan></text>
      <rect
         y="676.85974"
         x="92.41188"
         height="70.344284"
         width="19.27286"
         id="rect7182"
         style="fill:none;stroke:#000000;stroke-width:0.38785642;stroke-miterlimit:4;stroke-opacity:1;stroke-dasharray:0.38785642, 2.3271385;stroke-dashoffset:0" />
    </g>
    <g
       id="g7191"
       transform="translate(45,0)">
      <text
         sodipodi:linespacing="125%"
         id="text7193"
         y="745.65613"
         x="101.97093"
         style="font-size:14.22676659px;font-style:normal;font-weight:normal;text-align:center;line-height:125%;letter-spacing:0px;word-spacing:0px;text-anchor:middle;fill:#000000;fill-opacity:1;stroke:none;font-family:Sans"
         xml:space="preserve"><tspan
           style="font-size:5.69070673px;text-align:center;text-anchor:middle"
           y="745.65613"
           x="101.97093"
           id="tspan7195"
           sodipodi:role="line">to</tspan></text>
      <rect
         style="fill:none;stroke:#000000;stroke-width:0.38785642;stroke-miterlimit:4;stroke-opacity:1;stroke-dasharray:0.38785642, 2.3271385;stroke-dashoffset:0"
         id="rect7197"
         width="19.27286"
         height="70.344284"
         x="92.41188"
         y="676.85974" />
    </g>
    <g
       id="g7199"
       transform="translate(96.249999,0)">
      <text
         sodipodi:linespacing="125%"
         id="text7201"
         y="745.65613"
         x="101.97093"
         style="font-size:14.22676659px;font-style:normal;font-weight:normal;text-align:center;line-height:125%;letter-spacing:0px;word-spacing:0px;text-anchor:middle;fill:#000000;fill-opacity:1;stroke:none;font-family:Sans"
         xml:space="preserve"><tspan
           style="font-size:5.69070673px;text-align:center;text-anchor:middle"
           y="745.65613"
           x="101.97093"
           id="tspan7203"
           sodipodi:role="line">from</tspan></text>
      <rect
         style="fill:none;stroke:#000000;stroke-width:0.38785642;stroke-miterlimit:4;stroke-opacity:1;stroke-dasharray:0.38785642, 2.3271385;stroke-dashoffset:0"
         id="rect7205"
         width="19.27286"
         height="70.344284"
         x="92.41188"
         y="676.85974" />
    </g>
    <g
       transform="translate(141.25,0)"
       id="g7207">
      <text
         xml:space="preserve"
         style="font-size:14.22676659px;font-style:normal;font-weight:normal;text-align:center;line-height:125%;letter-spacing:0px;word-spacing:0px;text-anchor:middle;fill:#000000;fill-opacity:1;stroke:none;font-family:Sans"
         x="101.97093"
         y="745.65613"
         id="text7209"
         sodipodi:linespacing="125%"><tspan
           sodipodi:role="line"
           id="tspan7211"
           x="101.97093"
           y="745.65613"
           style="font-size:5.69070673px;text-align:center;text-anchor:middle">to</tspan></text>
      <rect
         y="676.85974"
         x="92.41188"
         height="70.344284"
         width="19.27286"
         id="rect7213"
         style="fill:none;stroke:#000000;stroke-width:0.38785642;stroke-miterlimit:4;stroke-opacity:1;stroke-dasharray:0.38785642, 2.3271385;stroke-dashoffset:0" />
    </g>
  </g>
</svg>
