<svg xmlns="http://www.w3.org/2000/svg" xmlns:svg="http://www.w3.org/2000/svg" id="svg2" width="170.911" height="80.732" version="1.1"><defs id="defs4"><marker id="Arrow2Sstart" orient="auto" overflow="visible" refX="0" refY="0"><path id="path3911" fill-rule="evenodd" stroke-linejoin="round" stroke-width=".625" d="M 8.7185878,4.0337352 -2.2072895,0.01601326 8.7185884,-4.0017078 c -1.7454984,2.3720609 -1.7354408,5.6174519 -6e-7,8.035443 z" transform="matrix(0.3,0,0,0.3,-0.69,0)"/></marker><marker id="Arrow1Mend" orient="auto" overflow="visible" refX="0" refY="0"><path id="path3890" fill-rule="evenodd" stroke="#000" stroke-width="1pt" d="M 0,0 5,-5 -12.5,0 5,5 0,0 z" transform="matrix(-0.4,0,0,-0.4,-4,0)"/></marker><marker id="Arrow2Mend" orient="auto" overflow="visible" refX="0" refY="0"><path id="path3908" fill-rule="evenodd" stroke-linejoin="round" stroke-width=".625" d="M 8.7185878,4.0337352 -2.2072895,0.01601326 8.7185884,-4.0017078 c -1.7454984,2.3720609 -1.7354408,5.6174519 -6e-7,8.035443 z" transform="scale(-0.6,-0.6)"/></marker><marker id="Arrow2Mend-3" orient="auto" overflow="visible" refX="0" refY="0"><path id="path3908-6" fill-rule="evenodd" stroke-linejoin="round" stroke-width=".625" d="M 8.7185878,4.0337352 -2.2072895,0.01601326 8.7185884,-4.0017078 c -1.7454984,2.3720609 -1.7354408,5.6174519 -6e-7,8.035443 z" transform="scale(-0.6,-0.6)"/></marker><marker id="Arrow2Mend-9" orient="auto" overflow="visible" refX="0" refY="0"><path id="path3908-0" fill-rule="evenodd" stroke-linejoin="round" stroke-width=".625" d="M 8.7185878,4.0337352 -2.2072895,0.01601326 8.7185884,-4.0017078 c -1.7454984,2.3720609 -1.7354408,5.6174519 -6e-7,8.035443 z" transform="scale(-0.6,-0.6)"/></marker><marker id="Arrow2Mend-9-0" orient="auto" overflow="visible" refX="0" refY="0"><path id="path3908-0-1" fill-rule="evenodd" stroke-linejoin="round" stroke-width=".625" d="M 8.7185878,4.0337352 -2.2072895,0.01601326 8.7185884,-4.0017078 c -1.7454984,2.3720609 -1.7354408,5.6174519 -6e-7,8.035443 z" transform="scale(-0.6,-0.6)"/></marker><marker id="Arrow2Mend-9-9" orient="auto" overflow="visible" refX="0" refY="0"><path id="path3908-0-4" fill-rule="evenodd" stroke-linejoin="round" stroke-width=".625" d="M 8.7185878,4.0337352 -2.2072895,0.01601326 8.7185884,-4.0017078 c -1.7454984,2.3720609 -1.7354408,5.6174519 -6e-7,8.035443 z" transform="scale(-0.6,-0.6)"/></marker><marker id="Arrow2Mend-7" orient="auto" overflow="visible" refX="0" refY="0"><path id="path3908-8" fill-rule="evenodd" stroke-linejoin="round" stroke-width=".625" d="M 8.7185878,4.0337352 -2.2072895,0.01601326 8.7185884,-4.0017078 c -1.7454984,2.3720609 -1.7354408,5.6174519 -6e-7,8.035443 z" transform="scale(-0.6,-0.6)"/></marker><marker id="Arrow2Mend-76" orient="auto" overflow="visible" refX="0" refY="0"><path id="path3908-5" fill-rule="evenodd" stroke-linejoin="round" stroke-width=".625" d="M 8.7185878,4.0337352 -2.2072895,0.01601326 8.7185884,-4.0017078 c -1.7454984,2.3720609 -1.7354408,5.6174519 -6e-7,8.035443 z" transform="scale(-0.6,-0.6)"/></marker><marker id="Arrow2Mend-1" orient="auto" overflow="visible" refX="0" refY="0"><path id="path3908-4" fill-rule="evenodd" stroke-linejoin="round" stroke-width=".625" d="M 8.7185878,4.0337352 -2.2072895,0.01601326 8.7185884,-4.0017078 c -1.7454984,2.3720609 -1.7354408,5.6174519 -6e-7,8.035443 z" transform="scale(-0.6,-0.6)"/></marker><marker id="Arrow2Mend-9-1" orient="auto" overflow="visible" refX="0" refY="0"><path id="path3908-0-41" fill-rule="evenodd" stroke-linejoin="round" stroke-width=".625" d="M 8.7185878,4.0337352 -2.2072895,0.01601326 8.7185884,-4.0017078 c -1.7454984,2.3720609 -1.7354408,5.6174519 -6e-7,8.035443 z" transform="scale(-0.6,-0.6)"/></marker><marker id="Arrow2Mend-9-6" orient="auto" overflow="visible" refX="0" refY="0"><path id="path3908-0-8" fill-rule="evenodd" stroke-linejoin="round" stroke-width=".625" d="M 8.7185878,4.0337352 -2.2072895,0.01601326 8.7185884,-4.0017078 c -1.7454984,2.3720609 -1.7354408,5.6174519 -6e-7,8.035443 z" transform="scale(-0.6,-0.6)"/></marker><marker id="Arrow2Mend-9-99" orient="auto" overflow="visible" refX="0" refY="0"><path id="path3908-0-7" fill-rule="evenodd" stroke-linejoin="round" stroke-width=".625" d="M 8.7185878,4.0337352 -2.2072895,0.01601326 8.7185884,-4.0017078 c -1.7454984,2.3720609 -1.7354408,5.6174519 -6e-7,8.035443 z" transform="scale(-0.6,-0.6)"/></marker><marker id="Arrow2Mend-9-8" orient="auto" overflow="visible" refX="0" refY="0"><path id="path3908-0-6" fill-rule="evenodd" stroke-linejoin="round" stroke-width=".625" d="M 8.7185878,4.0337352 -2.2072895,0.01601326 8.7185884,-4.0017078 c -1.7454984,2.3720609 -1.7354408,5.6174519 -6e-7,8.035443 z" transform="scale(-0.6,-0.6)"/></marker><marker id="Arrow2Mend-4" orient="auto" overflow="visible" refX="0" refY="0"><path id="path3908-66" fill-rule="evenodd" stroke-linejoin="round" stroke-width=".625" d="M 8.7185878,4.0337352 -2.2072895,0.01601326 8.7185884,-4.0017078 c -1.7454984,2.3720609 -1.7354408,5.6174519 -6e-7,8.035443 z" transform="scale(-0.6,-0.6)"/></marker><marker id="Arrow2Mend-2" orient="auto" overflow="visible" refX="0" refY="0"><path id="path3908-7" fill-rule="evenodd" stroke-linejoin="round" stroke-width=".625" d="M 8.7185878,4.0337352 -2.2072895,0.01601326 8.7185884,-4.0017078 c -1.7454984,2.3720609 -1.7354408,5.6174519 -6e-7,8.035443 z" transform="scale(-0.6,-0.6)"/></marker><marker id="Arrow1Mend-4" orient="auto" overflow="visible" refX="0" refY="0"><path id="path3890-0" fill-rule="evenodd" stroke="#000" stroke-width="1pt" d="M 0,0 5,-5 -12.5,0 5,5 0,0 z" transform="matrix(-0.4,0,0,-0.4,-4,0)"/></marker><marker id="Arrow1Mend-3" orient="auto" overflow="visible" refX="0" refY="0"><path id="path3890-03" fill-rule="evenodd" stroke="#000" stroke-width="1pt" d="M 0,0 5,-5 -12.5,0 5,5 0,0 z" transform="matrix(-0.4,0,0,-0.4,-4,0)"/></marker><marker id="Arrow1Mend-48" orient="auto" overflow="visible" refX="0" refY="0"><path id="path3890-9" fill-rule="evenodd" stroke="#000" stroke-width="1pt" d="M 0,0 5,-5 -12.5,0 5,5 0,0 z" transform="matrix(-0.4,0,0,-0.4,-4,0)"/></marker><marker id="Arrow2Mend-2-5" orient="auto" overflow="visible" refX="0" refY="0"><path id="path3908-7-9" fill-rule="evenodd" stroke-linejoin="round" stroke-width=".625" d="M 8.7185878,4.0337352 -2.2072895,0.01601326 8.7185884,-4.0017078 c -1.7454984,2.3720609 -1.7354408,5.6174519 -6e-7,8.035443 z" transform="scale(-0.6,-0.6)"/></marker><marker id="Arrow1Mend-2" orient="auto" overflow="visible" refX="0" refY="0"><path id="path3890-3" fill-rule="evenodd" stroke="#000" stroke-width="1pt" d="M 0,0 5,-5 -12.5,0 5,5 0,0 z" transform="matrix(-0.4,0,0,-0.4,-4,0)"/></marker><marker id="Arrow1Mend-9" orient="auto" overflow="visible" refX="0" refY="0"><path id="path3890-34" fill-rule="evenodd" stroke="#000" stroke-width="1pt" d="M 0,0 5,-5 -12.5,0 5,5 0,0 z" transform="matrix(-0.4,0,0,-0.4,-4,0)"/></marker><marker id="Arrow2Mend-42" orient="auto" overflow="visible" refX="0" refY="0"><path id="path3908-57" fill-rule="evenodd" stroke-linejoin="round" stroke-width=".625" d="M 8.7185878,4.0337352 -2.2072895,0.01601326 8.7185884,-4.0017078 c -1.7454984,2.3720609 -1.7354408,5.6174519 -6e-7,8.035443 z" transform="scale(-0.6,-0.6)"/></marker><marker id="Arrow2Mend-91" orient="auto" overflow="visible" refX="0" refY="0"><path id="path3908-1" fill-rule="evenodd" stroke-linejoin="round" stroke-width=".625" d="M 8.7185878,4.0337352 -2.2072895,0.01601326 8.7185884,-4.0017078 c -1.7454984,2.3720609 -1.7354408,5.6174519 -6e-7,8.035443 z" transform="scale(-0.6,-0.6)"/></marker><marker id="marker8316" orient="auto" overflow="visible" refX="0" refY="0"><path id="path8318" fill-rule="evenodd" stroke-linejoin="round" stroke-width=".625" d="M 8.7185878,4.0337352 -2.2072895,0.01601326 8.7185884,-4.0017078 c -1.7454984,2.3720609 -1.7354408,5.6174519 -6e-7,8.035443 z" transform="scale(-0.6,-0.6)"/></marker><marker id="Arrow2Mend-3-3" orient="auto" overflow="visible" refX="0" refY="0"><path id="path3908-6-7" fill-rule="evenodd" stroke-linejoin="round" stroke-width=".625" d="M 8.7185878,4.0337352 -2.2072895,0.01601326 8.7185884,-4.0017078 c -1.7454984,2.3720609 -1.7354408,5.6174519 -6e-7,8.035443 z" transform="scale(-0.6,-0.6)"/></marker><marker id="marker8322" orient="auto" overflow="visible" refX="0" refY="0"><path id="path8324" fill-rule="evenodd" stroke-linejoin="round" stroke-width=".625" d="M 8.7185878,4.0337352 -2.2072895,0.01601326 8.7185884,-4.0017078 c -1.7454984,2.3720609 -1.7354408,5.6174519 -6e-7,8.035443 z" transform="scale(-0.6,-0.6)"/></marker><marker id="Arrow2Mend-5" orient="auto" overflow="visible" refX="0" refY="0"><path id="path3908-15" fill-rule="evenodd" stroke-linejoin="round" stroke-width=".625" d="M 8.7185878,4.0337352 -2.2072895,0.01601326 8.7185884,-4.0017078 c -1.7454984,2.3720609 -1.7354408,5.6174519 -6e-7,8.035443 z" transform="scale(-0.6,-0.6)"/></marker><marker id="Arrow2Mend-51" orient="auto" overflow="visible" refX="0" refY="0"><path id="path3908-577" fill-rule="evenodd" stroke-linejoin="round" stroke-width=".625" d="M 8.7185878,4.0337352 -2.2072895,0.01601326 8.7185884,-4.0017078 c -1.7454984,2.3720609 -1.7354408,5.6174519 -6e-7,8.035443 z" transform="scale(-0.6,-0.6)"/></marker><marker id="marker8506" orient="auto" overflow="visible" refX="0" refY="0"><path id="path8508" fill-rule="evenodd" stroke-linejoin="round" stroke-width=".625" d="M 8.7185878,4.0337352 -2.2072895,0.01601326 8.7185884,-4.0017078 c -1.7454984,2.3720609 -1.7354408,5.6174519 -6e-7,8.035443 z" transform="scale(-0.6,-0.6)"/></marker><marker id="Arrow2Mend-3-6" orient="auto" overflow="visible" refX="0" refY="0"><path id="path3908-6-2" fill-rule="evenodd" stroke-linejoin="round" stroke-width=".625" d="M 8.7185878,4.0337352 -2.2072895,0.01601326 8.7185884,-4.0017078 c -1.7454984,2.3720609 -1.7354408,5.6174519 -6e-7,8.035443 z" transform="scale(-0.6,-0.6)"/></marker><marker id="Arrow2Mend-92" orient="auto" overflow="visible" refX="0" refY="0"><path id="path3908-9" fill-rule="evenodd" stroke-linejoin="round" stroke-width=".625" d="M 8.7185878,4.0337352 -2.2072895,0.01601326 8.7185884,-4.0017078 c -1.7454984,2.3720609 -1.7354408,5.6174519 -6e-7,8.035443 z" transform="scale(-0.6,-0.6)"/></marker><marker id="Arrow2Mend-17" orient="auto" overflow="visible" refX="0" refY="0"><path id="path3908-87" fill-rule="evenodd" stroke-linejoin="round" stroke-width=".625" d="M 8.7185878,4.0337352 -2.2072895,0.01601326 8.7185884,-4.0017078 c -1.7454984,2.3720609 -1.7354408,5.6174519 -6e-7,8.035443 z" transform="scale(-0.6,-0.6)"/></marker><marker id="Arrow2Mend-12" orient="auto" overflow="visible" refX="0" refY="0"><path id="path3908-86" fill-rule="evenodd" stroke-linejoin="round" stroke-width=".625" d="M 8.7185878,4.0337352 -2.2072895,0.01601326 8.7185884,-4.0017078 c -1.7454984,2.3720609 -1.7354408,5.6174519 -6e-7,8.035443 z" transform="scale(-0.6,-0.6)"/></marker><marker id="Arrow2Mend-79" orient="auto" overflow="visible" refX="0" refY="0"><path id="path3908-49" fill-rule="evenodd" stroke-linejoin="round" stroke-width=".625" d="M 8.7185878,4.0337352 -2.2072895,0.01601326 8.7185884,-4.0017078 c -1.7454984,2.3720609 -1.7354408,5.6174519 -6e-7,8.035443 z" transform="scale(-0.6,-0.6)"/></marker><marker id="Arrow2Mend-45" orient="auto" overflow="visible" refX="0" refY="0"><path id="path3908-07" fill-rule="evenodd" stroke-linejoin="round" stroke-width=".625" d="M 8.7185878,4.0337352 -2.2072895,0.01601326 8.7185884,-4.0017078 c -1.7454984,2.3720609 -1.7354408,5.6174519 -6e-7,8.035443 z" transform="scale(-0.6,-0.6)"/></marker><marker id="Arrow2Mend-8" orient="auto" overflow="visible" refX="0" refY="0"><path id="path3908-71" fill-rule="evenodd" stroke-linejoin="round" stroke-width=".625" d="M 8.7185878,4.0337352 -2.2072895,0.01601326 8.7185884,-4.0017078 c -1.7454984,2.3720609 -1.7354408,5.6174519 -6e-7,8.035443 z" transform="scale(-0.6,-0.6)"/></marker><marker id="Arrow1Mend-7" orient="auto" overflow="visible" refX="0" refY="0"><path id="path3890-340" fill-rule="evenodd" stroke="#000" stroke-width="1pt" d="M 0,0 5,-5 -12.5,0 5,5 0,0 z" transform="matrix(-0.4,0,0,-0.4,-4,0)"/></marker><marker id="Arrow2Mend-84" orient="auto" overflow="visible" refX="0" refY="0"><path id="path3908-63" fill-rule="evenodd" stroke-linejoin="round" stroke-width=".625" d="M 8.7185878,4.0337352 -2.2072895,0.01601326 8.7185884,-4.0017078 c -1.7454984,2.3720609 -1.7354408,5.6174519 -6e-7,8.035443 z" transform="scale(-0.6,-0.6)"/></marker><marker id="Arrow2Mend-36" orient="auto" overflow="visible" refX="0" refY="0"><path id="path3908-75" fill-rule="evenodd" stroke-linejoin="round" stroke-width=".625" d="M 8.7185878,4.0337352 -2.2072895,0.01601326 8.7185884,-4.0017078 c -1.7454984,2.3720609 -1.7354408,5.6174519 -6e-7,8.035443 z" transform="scale(-0.6,-0.6)"/></marker><marker id="Arrow2Mend-35" orient="auto" overflow="visible" refX="0" refY="0"><path id="path3908-62" fill-rule="evenodd" stroke-linejoin="round" stroke-width=".625" d="M 8.7185878,4.0337352 -2.2072895,0.01601326 8.7185884,-4.0017078 c -1.7454984,2.3720609 -1.7354408,5.6174519 -6e-7,8.035443 z" transform="scale(-0.6,-0.6)"/></marker><marker id="Arrow2Mend-912" orient="auto" overflow="visible" refX="0" refY="0"><path id="path3908-70" fill-rule="evenodd" stroke-linejoin="round" stroke-width=".625" d="M 8.7185878,4.0337352 -2.2072895,0.01601326 8.7185884,-4.0017078 c -1.7454984,2.3720609 -1.7354408,5.6174519 -6e-7,8.035443 z" transform="scale(-0.6,-0.6)"/></marker><marker id="Arrow2Mend-360" orient="auto" overflow="visible" refX="0" refY="0"><path id="path3908-626" fill-rule="evenodd" stroke-linejoin="round" stroke-width=".625" d="M 8.7185878,4.0337352 -2.2072895,0.01601326 8.7185884,-4.0017078 c -1.7454984,2.3720609 -1.7354408,5.6174519 -6e-7,8.035443 z" transform="scale(-0.6,-0.6)"/></marker></defs><metadata id="metadata7"/><g id="layer1" transform="translate(-87.217952,-671.66581)"><path id="path3292" fill="#000" fill-opacity="1" stroke="none" d="m 39.395949,36.97205 c 0,1.18552 -0.961054,2.146574 -2.146575,2.146574 -1.18552,0 -2.146574,-0.961054 -2.146574,-2.146574 0,-1.185521 0.961054,-2.146575 2.146574,-2.146575 1.185521,0 2.146575,0.961054 2.146575,2.146575 z" transform="translate(64.503669,646.78685)"/><path id="path4296" fill="#000" fill-opacity="1" stroke="none" d="m 39.395949,36.97205 c 0,1.18552 -0.961054,2.146574 -2.146575,2.146574 -1.18552,0 -2.146574,-0.961054 -2.146574,-2.146574 0,-1.185521 0.961054,-2.146575 2.146574,-2.146575 1.185521,0 2.146575,0.961054 2.146575,2.146575 z" transform="translate(64.503669,660.20203)"/><path id="path4298" fill="#000" fill-opacity="1" stroke="none" d="m 39.395949,36.97205 c 0,1.18552 -0.961054,2.146574 -2.146575,2.146574 -1.18552,0 -2.146574,-0.961054 -2.146574,-2.146574 0,-1.185521 0.961054,-2.146575 2.146574,-2.146575 1.185521,0 2.146575,0.961054 2.146575,2.146575 z" transform="translate(64.503669,673.61721)"/><path id="path4300" fill="#000" fill-opacity="1" stroke="none" d="m 39.395949,36.97205 c 0,1.18552 -0.961054,2.146574 -2.146575,2.146574 -1.18552,0 -2.146574,-0.961054 -2.146574,-2.146574 0,-1.185521 0.961054,-2.146575 2.146574,-2.146575 1.185521,0 2.146575,0.961054 2.146575,2.146575 z" transform="translate(64.503669,687.03238)"/><path id="path4302" fill="#000" fill-opacity="1" stroke="none" d="m 39.395949,36.97205 c 0,1.18552 -0.961054,2.146574 -2.146575,2.146574 -1.18552,0 -2.146574,-0.961054 -2.146574,-2.146574 0,-1.185521 0.961054,-2.146575 2.146574,-2.146575 1.185521,0 2.146575,0.961054 2.146575,2.146575 z" transform="translate(64.503669,700.44756)"/><path id="path4304" fill="#000" fill-opacity="1" stroke="none" d="m 39.395949,36.97205 c 0,1.18552 -0.961054,2.146574 -2.146575,2.146574 -1.18552,0 -2.146574,-0.961054 -2.146574,-2.146574 0,-1.185521 0.961054,-2.146575 2.146574,-2.146575 1.185521,0 2.146575,0.961054 2.146575,2.146575 z" transform="translate(110.57509,660.20203)"/><path id="path4306" fill="#000" fill-opacity="1" stroke="none" d="m 39.395949,36.97205 c 0,1.18552 -0.961054,2.146574 -2.146575,2.146574 -1.18552,0 -2.146574,-0.961054 -2.146574,-2.146574 0,-1.185521 0.961054,-2.146575 2.146574,-2.146575 1.185521,0 2.146575,0.961054 2.146575,2.146575 z" transform="translate(110.57509,687.03238)"/><path id="path4578" fill="none" stroke="#000" stroke-dasharray="none" stroke-linecap="butt" stroke-linejoin="miter" stroke-miterlimit="4" stroke-opacity="1" stroke-width=".625" marker-end="url(#Arrow2Mend)" d="m 103.79149,684.03456 41.93081,12.4637"/><path id="path7140" fill="none" stroke="#000" stroke-dasharray="none" stroke-linecap="butt" stroke-linejoin="miter" stroke-miterlimit="4" stroke-opacity="1" stroke-width=".625" marker-end="url(#Arrow2Mend)" d="m 103.54083,697.80176 42.24783,24.99861"/><path id="path7154" fill="#000" fill-opacity="1" stroke="none" d="m 39.395949,36.97205 c 0,1.18552 -0.961054,2.146574 -2.146575,2.146574 -1.18552,0 -2.146574,-0.961054 -2.146574,-2.146574 0,-1.185521 0.961054,-2.146575 2.146574,-2.146575 1.185521,0 2.146575,0.961054 2.146575,2.146575 z" transform="matrix(-1,0,0,1,280.78813,645.89399)"/><path id="path7156" fill="#000" fill-opacity="1" stroke="none" d="m 39.395949,36.97205 c 0,1.18552 -0.961054,2.146574 -2.146575,2.146574 -1.18552,0 -2.146574,-0.961054 -2.146574,-2.146574 0,-1.185521 0.961054,-2.146575 2.146574,-2.146575 1.185521,0 2.146575,0.961054 2.146575,2.146575 z" transform="matrix(-1,0,0,1,280.78813,659.30917)"/><path id="path7158" fill="#000" fill-opacity="1" stroke="none" d="m 39.395949,36.97205 c 0,1.18552 -0.961054,2.146574 -2.146575,2.146574 -1.18552,0 -2.146574,-0.961054 -2.146574,-2.146574 0,-1.185521 0.961054,-2.146575 2.146574,-2.146575 1.185521,0 2.146575,0.961054 2.146575,2.146575 z" transform="matrix(-1,0,0,1,280.78813,672.72435)"/><path id="path7160" fill="#000" fill-opacity="1" stroke="none" d="m 39.395949,36.97205 c 0,1.18552 -0.961054,2.146574 -2.146575,2.146574 -1.18552,0 -2.146574,-0.961054 -2.146574,-2.146574 0,-1.185521 0.961054,-2.146575 2.146574,-2.146575 1.185521,0 2.146575,0.961054 2.146575,2.146575 z" transform="matrix(-1,0,0,1,280.78813,686.13952)"/><path id="path7162" fill="#000" fill-opacity="1" stroke="none" d="m 39.395949,36.97205 c 0,1.18552 -0.961054,2.146574 -2.146575,2.146574 -1.18552,0 -2.146574,-0.961054 -2.146574,-2.146574 0,-1.185521 0.961054,-2.146575 2.146574,-2.146575 1.185521,0 2.146575,0.961054 2.146575,2.146575 z" transform="matrix(-1,0,0,1,280.78813,699.5547)"/><path id="path7164" fill="#000" fill-opacity="1" stroke="none" d="m 39.395949,36.97205 c 0,1.18552 -0.961054,2.146574 -2.146575,2.146574 -1.18552,0 -2.146574,-0.961054 -2.146574,-2.146574 0,-1.185521 0.961054,-2.146575 2.146574,-2.146575 1.185521,0 2.146575,0.961054 2.146575,2.146575 z" transform="matrix(-1,0,0,1,234.7167,659.30917)"/><path id="path7166" fill="#000" fill-opacity="1" stroke="none" d="m 39.395949,36.97205 c 0,1.18552 -0.961054,2.146574 -2.146575,2.146574 -1.18552,0 -2.146574,-0.961054 -2.146574,-2.146574 0,-1.185521 0.961054,-2.146575 2.146574,-2.146575 1.185521,0 2.146575,0.961054 2.146575,2.146575 z" transform="matrix(-1,0,0,1,234.7167,686.13952)"/><path id="path7178" fill="none" stroke="#000" stroke-dasharray="none" stroke-linecap="butt" stroke-linejoin="miter" stroke-miterlimit="4" stroke-opacity="1" stroke-width=".625" marker-end="url(#Arrow2Mend)" d="m 199.41081,695.69618 41.94565,-11.84594"/><path id="path7180" fill="none" stroke="#000" stroke-dasharray="none" stroke-linecap="butt" stroke-linejoin="miter" stroke-miterlimit="4" stroke-opacity="1" stroke-width=".625" marker-end="url(#Arrow2Mend)" d="m 198.30285,722.33985 42.90059,-24.50406"/><g id="g7186"><text id="text4571-2-26-5-4-0-9-3" x="101.971" y="745.656" fill="#000" fill-opacity="1" stroke="none" font-family="Sans" font-size="14.227" font-style="normal" font-weight="normal" letter-spacing="0" text-anchor="middle" word-spacing="0" xml:space="preserve" style="text-align:center;line-height:125%"><tspan style="text-align:center" id="tspan4573-8-17-4-0-3-9-6" x="101.971" y="745.656" font-size="5.691" text-anchor="middle">from</tspan></text><rect id="rect7182" width="19.273" height="70.344" x="92.412" y="676.86" fill="none" stroke="#000" stroke-dasharray=".388 2.327" stroke-dashoffset="0" stroke-miterlimit="4" stroke-opacity="1" stroke-width=".388"/></g><g id="g7191" transform="translate(45,0)"><text id="text7193" x="101.971" y="745.656" fill="#000" fill-opacity="1" stroke="none" font-family="Sans" font-size="14.227" font-style="normal" font-weight="normal" letter-spacing="0" text-anchor="middle" word-spacing="0" xml:space="preserve" style="text-align:center;line-height:125%"><tspan id="tspan7195" x="101.971" y="745.656" font-size="5.691" text-anchor="middle" style="text-align:center">to</tspan></text><rect id="rect7197" width="19.273" height="70.344" x="92.412" y="676.86" fill="none" stroke="#000" stroke-dasharray=".388 2.327" stroke-dashoffset="0" stroke-miterlimit="4" stroke-opacity="1" stroke-width=".388"/></g><g id="g7199" transform="translate(96.249999,0)"><text id="text7201" x="101.971" y="745.656" fill="#000" fill-opacity="1" stroke="none" font-family="Sans" font-size="14.227" font-style="normal" font-weight="normal" letter-spacing="0" text-anchor="middle" word-spacing="0" xml:space="preserve" style="text-align:center;line-height:125%"><tspan id="tspan7203" x="101.971" y="745.656" font-size="5.691" text-anchor="middle" style="text-align:center">from</tspan></text><rect id="rect7205" width="19.273" height="70.344" x="92.412" y="676.86" fill="none" stroke="#000" stroke-dasharray=".388 2.327" stroke-dashoffset="0" stroke-miterlimit="4" stroke-opacity="1" stroke-width=".388"/></g><g id="g7207" transform="translate(141.25,0)"><text id="text7209" x="101.971" y="745.656" fill="#000" fill-opacity="1" stroke="none" font-family="Sans" font-size="14.227" font-style="normal" font-weight="normal" letter-spacing="0" text-anchor="middle" word-spacing="0" xml:space="preserve" style="text-align:center;line-height:125%"><tspan style="text-align:center" id="tspan7211" x="101.971" y="745.656" font-size="5.691" text-anchor="middle">to</tspan></text><rect id="rect7213" width="19.273" height="70.344" x="92.412" y="676.86" fill="none" stroke="#000" stroke-dasharray=".388 2.327" stroke-dashoffset="0" stroke-miterlimit="4" stroke-opacity="1" stroke-width=".388"/></g></g></svg>