<?xml version="1.0" encoding="UTF-8" standalone="no"?>
<!DOCTYPE svg PUBLIC "-//W3C//DTD SVG 1.0//EN"
 "http://www.w3.org/TR/2001/REC-SVG-20010904/DTD/svg10.dtd" [
 <!ATTLIST svg xmlns:xlink CDATA #FIXED "http://www.w3.org/1999/xlink">
]>
<!-- Generated by Graphviz version 2.20.2 (Wed Sep 16 11:12:11 UTC 2009)
     For user: (shubham) shubham,,, -->
<!-- Title: G Pages: 1 -->
<svg width="1133pt" height="116pt"
 viewBox="0.00 0.00 1133.00 116.00" xmlns="http://www.w3.org/2000/svg" xmlns:xlink="http://www.w3.org/1999/xlink">
<g id="graph0" class="graph" transform="scale(1 1) rotate(0) translate(4 112)">
<title>G</title>
<polygon style="fill:white;stroke:white;" points="-4,4 -4,-112 1129,-112 1129,4 -4,4"/>
<!-- top_a -->
<g id="node1" class="node"><title>top_a</title>
<polygon style="fill:none;stroke:black;" points="288,-108 250.977,-81 325.023,-81 288,-108"/>
<text text-anchor="middle" x="288" y="-85.9" style="font-family:Times New Roman;font-size:14.00;">top_a</text>
</g>
<!-- top_BITWISE_XOR -->
<g id="node3" class="node"><title>top_BITWISE_XOR</title>
<ellipse style="fill:none;stroke:black;" cx="101" cy="-18" rx="100.758" ry="18"/>
<text text-anchor="middle" x="101" y="-13.9" style="font-family:Times New Roman;font-size:14.00;">top_BITWISE_XOR</text>
</g>
<!-- top_a&#45;&gt;top_BITWISE_XOR -->
<g id="edge2" class="edge"><title>top_a&#45;&gt;top_BITWISE_XOR</title>
<path style="fill:none;stroke:black;" d="M266,-81C259,-78 250,-75 242,-72 213,-60 181,-48 154,-38"/>
<polygon style="fill:black;stroke:black;" points="155.56,-34.8631 145,-34 152.717,-41.2598 155.56,-34.8631"/>
</g>
<!-- top_BITWISE_AND -->
<g id="node10" class="node"><title>top_BITWISE_AND</title>
<ellipse style="fill:none;stroke:black;" cx="321" cy="-18" rx="100.953" ry="18"/>
<text text-anchor="middle" x="321" y="-13.9" style="font-family:Times New Roman;font-size:14.00;">top_BITWISE_AND</text>
</g>
<!-- top_a&#45;&gt;top_BITWISE_AND -->
<g id="edge14" class="edge"><title>top_a&#45;&gt;top_BITWISE_AND</title>
<path style="fill:none;stroke:black;" d="M292,-81C296,-72 303,-58 309,-45"/>
<polygon style="fill:black;stroke:black;" points="312.137,-46.5596 313,-36 305.74,-43.7166 312.137,-46.5596"/>
</g>
<!-- 0 -->
<g id="node4" class="node"><title>0</title>
<ellipse style="fill:none;stroke:black;" cx="192" cy="-90" rx="40.9981" ry="18"/>
<text text-anchor="middle" x="192" y="-85.9" style="font-family:Times New Roman;font-size:14.00;">top^b</text>
</g>
<!-- 0&#45;&gt;top_BITWISE_XOR -->
<g id="edge4" class="edge"><title>0&#45;&gt;top_BITWISE_XOR</title>
<path style="fill:none;stroke:black;" d="M166,-76C159,-72 152,-68 146,-63 139,-57 131,-50 124,-43"/>
<polygon style="fill:black;stroke:black;" points="126.546,-40.5962 117,-36 121.596,-45.546 126.546,-40.5962"/>
</g>
<!-- 0&#45;&gt;top_BITWISE_AND -->
<g id="edge8" class="edge"><title>0&#45;&gt;top_BITWISE_AND</title>
<path style="fill:none;stroke:black;" d="M217,-76C235,-66 260,-52 281,-40"/>
<polygon style="fill:black;stroke:black;" points="282.958,-42.916 290,-35 279.559,-36.7969 282.958,-42.916"/>
</g>
<!-- 1 -->
<g id="node6" class="node"><title>1</title>
<ellipse style="fill:none;stroke:black;" cx="503" cy="-90" rx="48.1403" ry="18"/>
<text text-anchor="middle" x="503" y="-85.9" style="font-family:Times New Roman;font-size:14.00;">top^cin</text>
</g>
<!-- top_out_O -->
<g id="node8" class="node"><title>top_out_O</title>
<polygon style="fill:none;stroke:black;" points="503,-36 441.85,-9 564.15,-9 503,-36"/>
<text text-anchor="middle" x="503" y="-13.9" style="font-family:Times New Roman;font-size:14.00;">top_out_O</text>
</g>
<!-- 1&#45;&gt;top_out_O -->
<g id="edge6" class="edge"><title>1&#45;&gt;top_out_O</title>
<path style="fill:none;stroke:black;" d="M503,-72C503,-64 503,-55 503,-46"/>
<polygon style="fill:black;stroke:black;" points="506.5,-46 503,-36 499.5,-46 506.5,-46"/>
<text text-anchor="middle" x="521" y="-49.9" style="font-family:Times New Roman;font-size:14.00;">(null)</text>
</g>
<!-- 2 -->
<g id="node11" class="node"><title>2</title>
<ellipse style="fill:none;stroke:black;" cx="617" cy="-90" rx="48.1403" ry="18"/>
<text text-anchor="middle" x="617" y="-85.9" style="font-family:Times New Roman;font-size:14.00;">top^cin</text>
</g>
<!-- top_BITWISE_OR -->
<g id="node13" class="node"><title>top_BITWISE_OR</title>
<ellipse style="fill:none;stroke:black;" cx="689" cy="-18" rx="93.8091" ry="18"/>
<text text-anchor="middle" x="689" y="-13.9" style="font-family:Times New Roman;font-size:14.00;">top_BITWISE_OR</text>
</g>
<!-- 2&#45;&gt;top_BITWISE_OR -->
<g id="edge10" class="edge"><title>2&#45;&gt;top_BITWISE_OR</title>
<path style="fill:none;stroke:black;" d="M634,-73C643,-64 654,-53 664,-43"/>
<polygon style="fill:black;stroke:black;" points="666.404,-45.546 671,-36 661.454,-40.5962 666.404,-45.546"/>
</g>
<!-- 4 -->
<g id="node14" class="node"><title>4</title>
<ellipse style="fill:none;stroke:black;" cx="879" cy="-90" rx="73.8534" ry="18"/>
<text text-anchor="middle" x="879" y="-85.9" style="font-family:Times New Roman;font-size:14.00;">top^temp~2</text>
</g>
<!-- top_cout_O -->
<g id="node16" class="node"><title>top_cout_O</title>
<polygon style="fill:none;stroke:black;" points="879,-36 812.986,-9 945.014,-9 879,-36"/>
<text text-anchor="middle" x="879" y="-13.9" style="font-family:Times New Roman;font-size:14.00;">top_cout_O</text>
</g>
<!-- 4&#45;&gt;top_cout_O -->
<g id="edge12" class="edge"><title>4&#45;&gt;top_cout_O</title>
<path style="fill:none;stroke:black;" d="M879,-72C879,-64 879,-55 879,-46"/>
<polygon style="fill:black;stroke:black;" points="882.5,-46 879,-36 875.5,-46 882.5,-46"/>
<text text-anchor="middle" x="897" y="-49.9" style="font-family:Times New Roman;font-size:14.00;">(null)</text>
</g>
<!-- 3 -->
<g id="node18" class="node"><title>3</title>
<ellipse style="fill:none;stroke:black;" cx="724" cy="-90" rx="40.9981" ry="18"/>
<text text-anchor="middle" x="724" y="-85.9" style="font-family:Times New Roman;font-size:14.00;">top^b</text>
</g>
<!-- 3&#45;&gt;top_BITWISE_OR -->
<g id="edge16" class="edge"><title>3&#45;&gt;top_BITWISE_OR</title>
<path style="fill:none;stroke:black;" d="M715,-72C711,-64 707,-54 702,-45"/>
<polygon style="fill:black;stroke:black;" points="705.26,-43.7166 698,-36 698.863,-46.5596 705.26,-43.7166"/>
</g>
<!-- top_b -->
<g id="node20" class="node"><title>top_b</title>
<polygon style="fill:none;stroke:black;" points="96,-108 58.9767,-81 133.023,-81 96,-108"/>
<text text-anchor="middle" x="96" y="-85.9" style="font-family:Times New Roman;font-size:14.00;">top_b</text>
</g>
<!-- top_b&#45;&gt;top_BITWISE_XOR -->
<g id="edge18" class="edge"><title>top_b&#45;&gt;top_BITWISE_XOR</title>
<path style="fill:none;stroke:black;" d="M97,-81C98,-72 99,-59 99,-46"/>
<polygon style="fill:black;stroke:black;" points="102.488,-46.2987 100,-36 95.5222,-45.6021 102.488,-46.2987"/>
</g>
<!-- top_b&#45;&gt;top_BITWISE_AND -->
<g id="edge20" class="edge"><title>top_b&#45;&gt;top_BITWISE_AND</title>
<path style="fill:none;stroke:black;" d="M118,-81C126,-78 134,-75 142,-72 179,-58 222,-46 256,-36"/>
<polygon style="fill:black;stroke:black;" points="257.427,-39.2259 266,-33 255.416,-32.5212 257.427,-39.2259"/>
</g>
<!-- top_cin -->
<g id="node23" class="node"><title>top_cin</title>
<polygon style="fill:none;stroke:black;" points="389,-108 343.138,-81 434.862,-81 389,-108"/>
<text text-anchor="middle" x="389" y="-85.9" style="font-family:Times New Roman;font-size:14.00;">top_cin</text>
</g>
<!-- top_cin&#45;&gt;top_BITWISE_XOR -->
<g id="edge22" class="edge"><title>top_cin&#45;&gt;top_BITWISE_XOR</title>
<path style="fill:none;stroke:black;" d="M364,-81C355,-78 344,-74 334,-72 283,-57 223,-44 178,-34"/>
<polygon style="fill:black;stroke:black;" points="178.492,-30.5292 168,-32 177.119,-37.3933 178.492,-30.5292"/>
</g>
<!-- top_cin&#45;&gt;top_BITWISE_AND -->
<g id="edge24" class="edge"><title>top_cin&#45;&gt;top_BITWISE_AND</title>
<path style="fill:none;stroke:black;" d="M380,-81C372,-72 357,-57 345,-44"/>
<polygon style="fill:black;stroke:black;" points="347.219,-41.221 338,-36 341.951,-45.8306 347.219,-41.221"/>
</g>
<!-- top_ZERO_GND_ZERO -->
<g id="node26" class="node"><title>top_ZERO_GND_ZERO</title>
<ellipse style="fill:none;stroke:black;" cx="1005" cy="-90" rx="34.0492" ry="18"/>
<text text-anchor="middle" x="1005" y="-85.9" style="font-family:Times New Roman;font-size:14.00;">&#45;1:&#45;1</text>
</g>
<!-- top_ONE_VCC_CNS -->
<g id="node27" class="node"><title>top_ONE_VCC_CNS</title>
<ellipse style="fill:none;stroke:black;" cx="1091" cy="-90" rx="34.0492" ry="18"/>
<text text-anchor="middle" x="1091" y="-85.9" style="font-family:Times New Roman;font-size:14.00;">&#45;1:&#45;1</text>
</g>
</g>
</svg>
