<?xml version="1.0" encoding="UTF-8" standalone="no"?>
<!DOCTYPE svg PUBLIC "-//W3C//DTD SVG 1.0//EN"
 "http://www.w3.org/TR/2001/REC-SVG-20010904/DTD/svg10.dtd" [
 <!ATTLIST svg xmlns:xlink CDATA #FIXED "http://www.w3.org/1999/xlink">
]>
<!-- Generated by Graphviz version 2.20.2 (Wed Sep 16 11:12:11 UTC 2009)
     For user: (shubham) shubham,,, -->
<!-- Title: G Pages: 1 -->
<svg width="2271pt" height="116pt"
 viewBox="0.00 0.00 2271.00 116.00" xmlns="http://www.w3.org/2000/svg" xmlns:xlink="http://www.w3.org/1999/xlink">
<g id="graph0" class="graph" transform="scale(1 1) rotate(0) translate(4 112)">
<title>G</title>
<polygon style="fill:white;stroke:white;" points="-4,4 -4,-112 2267,-112 2267,4 -4,4"/>
<!-- top_a -->
<g id="node1" class="node"><title>top_a</title>
<polygon style="fill:none;stroke:black;" points="256,-108 218.977,-81 293.023,-81 256,-108"/>
<text text-anchor="middle" x="256" y="-85.9" style="font-family:Times New Roman;font-size:14.00;">top_a</text>
</g>
<!-- top_BITWISE_XOR -->
<g id="node3" class="node"><title>top_BITWISE_XOR</title>
<ellipse style="fill:none;stroke:black;" cx="101" cy="-18" rx="100.758" ry="18"/>
<text text-anchor="middle" x="101" y="-13.9" style="font-family:Times New Roman;font-size:14.00;">top_BITWISE_XOR</text>
</g>
<!-- top_a&#45;&gt;top_BITWISE_XOR -->
<g id="edge2" class="edge"><title>top_a&#45;&gt;top_BITWISE_XOR</title>
<path style="fill:none;stroke:black;" d="M236,-81C213,-71 176,-53 146,-39"/>
<polygon style="fill:black;stroke:black;" points="147.56,-35.8631 137,-35 144.717,-42.2598 147.56,-35.8631"/>
</g>
<!-- top_BITWISE_AND -->
<g id="node13" class="node"><title>top_BITWISE_AND</title>
<ellipse style="fill:none;stroke:black;" cx="321" cy="-18" rx="100.953" ry="18"/>
<text text-anchor="middle" x="321" y="-13.9" style="font-family:Times New Roman;font-size:14.00;">top_BITWISE_AND</text>
</g>
<!-- top_a&#45;&gt;top_BITWISE_AND -->
<g id="edge14" class="edge"><title>top_a&#45;&gt;top_BITWISE_AND</title>
<path style="fill:none;stroke:black;" d="M264,-81C272,-72 286,-57 298,-44"/>
<polygon style="fill:black;stroke:black;" points="301.049,-45.8306 305,-36 295.781,-41.221 301.049,-45.8306"/>
</g>
<!-- 0 -->
<g id="node4" class="node"><title>0</title>
<ellipse style="fill:none;stroke:black;" cx="448" cy="-90" rx="27" ry="18"/>
<text text-anchor="middle" x="448" y="-85.9" style="font-family:Times New Roman;font-size:14.00;">0</text>
</g>
<!-- _LOGICAL_XOR -->
<g id="node5" class="node"><title>_LOGICAL_XOR</title>
<ellipse style="fill:none;stroke:black;" cx="579" cy="-90" rx="86.1654" ry="18"/>
<text text-anchor="middle" x="579" y="-85.9" style="font-family:Times New Roman;font-size:14.00;">_LOGICAL_XOR</text>
</g>
<!-- 8 -->
<g id="node6" class="node"><title>8</title>
<ellipse style="fill:none;stroke:black;" cx="160" cy="-90" rx="40.9981" ry="18"/>
<text text-anchor="middle" x="160" y="-85.9" style="font-family:Times New Roman;font-size:14.00;">top^b</text>
</g>
<!-- 8&#45;&gt;top_BITWISE_XOR -->
<g id="edge4" class="edge"><title>8&#45;&gt;top_BITWISE_XOR</title>
<path style="fill:none;stroke:black;" d="M146,-73C139,-64 130,-54 123,-44"/>
<polygon style="fill:black;stroke:black;" points="125.219,-41.221 116,-36 119.951,-45.8306 125.219,-41.221"/>
</g>
<!-- 8&#45;&gt;top_BITWISE_AND -->
<g id="edge8" class="edge"><title>8&#45;&gt;top_BITWISE_AND</title>
<path style="fill:none;stroke:black;" d="M189,-77C212,-66 246,-52 274,-39"/>
<polygon style="fill:black;stroke:black;" points="275.283,-42.2598 283,-35 272.44,-35.8631 275.283,-42.2598"/>
</g>
<!-- 1 -->
<g id="node8" class="node"><title>1</title>
<ellipse style="fill:none;stroke:black;" cx="710" cy="-90" rx="27" ry="18"/>
<text text-anchor="middle" x="710" y="-85.9" style="font-family:Times New Roman;font-size:14.00;">1</text>
</g>
<!-- 5 -->
<g id="node9" class="node"><title>5</title>
<ellipse style="fill:none;stroke:black;" cx="803" cy="-90" rx="48.1403" ry="18"/>
<text text-anchor="middle" x="803" y="-85.9" style="font-family:Times New Roman;font-size:14.00;">top^cin</text>
</g>
<!-- top_out_O -->
<g id="node11" class="node"><title>top_out_O</title>
<polygon style="fill:none;stroke:black;" points="803,-36 741.85,-9 864.15,-9 803,-36"/>
<text text-anchor="middle" x="803" y="-13.9" style="font-family:Times New Roman;font-size:14.00;">top_out_O</text>
</g>
<!-- 5&#45;&gt;top_out_O -->
<g id="edge6" class="edge"><title>5&#45;&gt;top_out_O</title>
<path style="fill:none;stroke:black;" d="M803,-72C803,-64 803,-55 803,-46"/>
<polygon style="fill:black;stroke:black;" points="806.5,-46 803,-36 799.5,-46 806.5,-46"/>
<text text-anchor="middle" x="832" y="-49.9" style="font-family:Times New Roman;font-size:14.00;">top^out</text>
</g>
<!-- 2 -->
<g id="node14" class="node"><title>2</title>
<ellipse style="fill:none;stroke:black;" cx="896" cy="-90" rx="27" ry="18"/>
<text text-anchor="middle" x="896" y="-85.9" style="font-family:Times New Roman;font-size:14.00;">2</text>
</g>
<!-- _LOGICAL_AND -->
<g id="node15" class="node"><title>_LOGICAL_AND</title>
<ellipse style="fill:none;stroke:black;" cx="1028" cy="-90" rx="86.8603" ry="18"/>
<text text-anchor="middle" x="1028" y="-85.9" style="font-family:Times New Roman;font-size:14.00;">_LOGICAL_AND</text>
</g>
<!-- 7 -->
<g id="node16" class="node"><title>7</title>
<ellipse style="fill:none;stroke:black;" cx="1181" cy="-90" rx="48.1403" ry="18"/>
<text text-anchor="middle" x="1181" y="-85.9" style="font-family:Times New Roman;font-size:14.00;">top^cin</text>
</g>
<!-- top_BITWISE_OR -->
<g id="node18" class="node"><title>top_BITWISE_OR</title>
<ellipse style="fill:none;stroke:black;" cx="1234" cy="-18" rx="93.8091" ry="18"/>
<text text-anchor="middle" x="1234" y="-13.9" style="font-family:Times New Roman;font-size:14.00;">top_BITWISE_OR</text>
</g>
<!-- 7&#45;&gt;top_BITWISE_OR -->
<g id="edge10" class="edge"><title>7&#45;&gt;top_BITWISE_OR</title>
<path style="fill:none;stroke:black;" d="M1194,-73C1200,-65 1208,-54 1215,-44"/>
<polygon style="fill:black;stroke:black;" points="1217.8,-46.1 1221,-36 1212.2,-41.9 1217.8,-46.1"/>
</g>
<!-- 4 -->
<g id="node19" class="node"><title>4</title>
<ellipse style="fill:none;stroke:black;" cx="1374" cy="-90" rx="27" ry="18"/>
<text text-anchor="middle" x="1374" y="-85.9" style="font-family:Times New Roman;font-size:14.00;">4</text>
</g>
<!-- _LOGICAL_OR -->
<g id="node20" class="node"><title>_LOGICAL_OR</title>
<ellipse style="fill:none;stroke:black;" cx="1498" cy="-90" rx="79.2166" ry="18"/>
<text text-anchor="middle" x="1498" y="-85.9" style="font-family:Times New Roman;font-size:14.00;">_LOGICAL_OR</text>
</g>
<!-- 6 -->
<g id="node21" class="node"><title>6</title>
<ellipse style="fill:none;stroke:black;" cx="1807" cy="-90" rx="212.134" ry="18"/>
<text text-anchor="middle" x="1807" y="-85.9" style="font-family:Times New Roman;font-size:14.00;">top^BITWISE_AND~3^LOGICAL_AND~9</text>
</g>
<!-- top_cout_O -->
<g id="node23" class="node"><title>top_cout_O</title>
<polygon style="fill:none;stroke:black;" points="1807,-36 1740.99,-9 1873.01,-9 1807,-36"/>
<text text-anchor="middle" x="1807" y="-13.9" style="font-family:Times New Roman;font-size:14.00;">top_cout_O</text>
</g>
<!-- 6&#45;&gt;top_cout_O -->
<g id="edge12" class="edge"><title>6&#45;&gt;top_cout_O</title>
<path style="fill:none;stroke:black;" d="M1807,-72C1807,-64 1807,-55 1807,-46"/>
<polygon style="fill:black;stroke:black;" points="1810.5,-46 1807,-36 1803.5,-46 1810.5,-46"/>
<text text-anchor="middle" x="1839" y="-49.9" style="font-family:Times New Roman;font-size:14.00;">top^cout</text>
</g>
<!-- 3 -->
<g id="node25" class="node"><title>3</title>
<ellipse style="fill:none;stroke:black;" cx="2064" cy="-90" rx="27" ry="18"/>
<text text-anchor="middle" x="2064" y="-85.9" style="font-family:Times New Roman;font-size:14.00;">3</text>
</g>
<!-- 9 -->
<g id="node26" class="node"><title>9</title>
<ellipse style="fill:none;stroke:black;" cx="1288" cy="-90" rx="40.9981" ry="18"/>
<text text-anchor="middle" x="1288" y="-85.9" style="font-family:Times New Roman;font-size:14.00;">top^b</text>
</g>
<!-- 9&#45;&gt;top_BITWISE_OR -->
<g id="edge16" class="edge"><title>9&#45;&gt;top_BITWISE_OR</title>
<path style="fill:none;stroke:black;" d="M1275,-73C1269,-65 1261,-54 1254,-44"/>
<polygon style="fill:black;stroke:black;" points="1256.8,-41.9 1248,-36 1251.2,-46.1 1256.8,-41.9"/>
</g>
<!-- top_b -->
<g id="node28" class="node"><title>top_b</title>
<polygon style="fill:none;stroke:black;" points="64,-108 26.9767,-81 101.023,-81 64,-108"/>
<text text-anchor="middle" x="64" y="-85.9" style="font-family:Times New Roman;font-size:14.00;">top_b</text>
</g>
<!-- top_b&#45;&gt;top_BITWISE_XOR -->
<g id="edge18" class="edge"><title>top_b&#45;&gt;top_BITWISE_XOR</title>
<path style="fill:none;stroke:black;" d="M69,-81C74,-72 81,-58 87,-45"/>
<polygon style="fill:black;stroke:black;" points="90.2031,-46.4414 92,-36 84.084,-43.0418 90.2031,-46.4414"/>
</g>
<!-- top_b&#45;&gt;top_BITWISE_AND -->
<g id="edge20" class="edge"><title>top_b&#45;&gt;top_BITWISE_AND</title>
<path style="fill:none;stroke:black;" d="M85,-81C93,-78 102,-74 110,-72 155,-57 207,-44 247,-34"/>
<polygon style="fill:black;stroke:black;" points="247.881,-37.3933 257,-32 246.508,-30.5292 247.881,-37.3933"/>
</g>
<!-- top_cin -->
<g id="node31" class="node"><title>top_cin</title>
<polygon style="fill:none;stroke:black;" points="357,-108 311.138,-81 402.862,-81 357,-108"/>
<text text-anchor="middle" x="357" y="-85.9" style="font-family:Times New Roman;font-size:14.00;">top_cin</text>
</g>
<!-- top_cin&#45;&gt;top_BITWISE_XOR -->
<g id="edge22" class="edge"><title>top_cin&#45;&gt;top_BITWISE_XOR</title>
<path style="fill:none;stroke:black;" d="M331,-81C322,-78 312,-75 302,-72 259,-58 209,-45 170,-36"/>
<polygon style="fill:black;stroke:black;" points="170.584,-32.5212 160,-33 168.573,-39.2259 170.584,-32.5212"/>
</g>
<!-- top_cin&#45;&gt;top_BITWISE_AND -->
<g id="edge24" class="edge"><title>top_cin&#45;&gt;top_BITWISE_AND</title>
<path style="fill:none;stroke:black;" d="M352,-81C348,-72 341,-58 335,-45"/>
<polygon style="fill:black;stroke:black;" points="337.916,-43.0418 330,-36 331.797,-46.4414 337.916,-43.0418"/>
</g>
<!-- gnd -->
<g id="node34" class="node"><title>gnd</title>
<ellipse style="fill:none;stroke:black;" cx="2143" cy="-90" rx="34.0492" ry="18"/>
<text text-anchor="middle" x="2143" y="-85.9" style="font-family:Times New Roman;font-size:14.00;">&#45;1:&#45;1</text>
</g>
<!-- vcc -->
<g id="node35" class="node"><title>vcc</title>
<ellipse style="fill:none;stroke:black;" cx="2229" cy="-90" rx="34.0492" ry="18"/>
<text text-anchor="middle" x="2229" y="-85.9" style="font-family:Times New Roman;font-size:14.00;">&#45;1:&#45;1</text>
</g>
</g>
</svg>
