<?xml version="1.0" encoding="UTF-8" standalone="no"?>
<!DOCTYPE svg PUBLIC "-//W3C//DTD SVG 1.0//EN"
 "http://www.w3.org/TR/2001/REC-SVG-20010904/DTD/svg10.dtd" [
 <!ATTLIST svg xmlns:xlink CDATA #FIXED "http://www.w3.org/1999/xlink">
]>
<!-- Generated by Graphviz version 2.20.2 (Wed Sep 16 11:12:11 UTC 2009)
     For user: (shubham) shubham,,, -->
<!-- Title: G Pages: 1 -->
<svg width="1028pt" height="98pt"
 viewBox="0.00 0.00 1028.00 98.00" xmlns="http://www.w3.org/2000/svg" xmlns:xlink="http://www.w3.org/1999/xlink">
<g id="graph0" class="graph" transform="scale(1 1) rotate(0) translate(4 94)">
<title>G</title>
<polygon style="fill:white;stroke:white;" points="-4,4 -4,-94 1024,-94 1024,4 -4,4"/>
<!-- top_clock -->
<g id="node1" class="node"><title>top_clock</title>
<polygon style="fill:none;stroke:black;" points="55,-90 -0.0897674,-63 110.09,-63 55,-90"/>
<text text-anchor="middle" x="55" y="-67.9" style="font-family:Times New Roman;font-size:14.00;">top_clock</text>
</g>
<!-- top_FF_NODE -->
<g id="node3" class="node"><title>top_FF_NODE</title>
<ellipse style="fill:none;stroke:black;" cx="126" cy="-18" rx="77.8268" ry="18"/>
<text text-anchor="middle" x="126" y="-13.9" style="font-family:Times New Roman;font-size:14.00;">top_FF_NODE</text>
</g>
<!-- top_clock&#45;&gt;top_FF_NODE -->
<g id="edge2" class="edge"><title>top_clock&#45;&gt;top_FF_NODE</title>
<path style="fill:none;stroke:black;" d="M62,-63C68,-57 78,-49 89,-41"/>
<polygon style="fill:black;stroke:black;" points="91.1,-43.8 97,-35 86.9,-38.2 91.1,-43.8"/>
</g>
<!-- top_clock&#45;&gt;top_FF_NODE -->
<g id="edge6" class="edge"><title>top_clock&#45;&gt;top_FF_NODE</title>
<path style="fill:none;stroke:black;" d="M72,-63C81,-57 92,-49 101,-42"/>
<polygon style="fill:black;stroke:black;" points="103.1,-44.8 109,-36 98.9,-39.2 103.1,-44.8"/>
</g>
<!-- 0 -->
<g id="node4" class="node"><title>0</title>
<polygon style="fill:none;stroke:black;" points="353,-90 284.012,-63 421.988,-63 353,-90"/>
<text text-anchor="middle" x="353" y="-67.9" style="font-family:Times New Roman;font-size:14.00;">top^a_in~0</text>
</g>
<!-- 0&#45;&gt;top_FF_NODE -->
<g id="edge10" class="edge"><title>0&#45;&gt;top_FF_NODE</title>
<path style="fill:none;stroke:black;" d="M315,-63C281,-55 230,-43 190,-33"/>
<polygon style="fill:black;stroke:black;" points="190.492,-29.5292 180,-31 189.119,-36.3933 190.492,-29.5292"/>
</g>
<!-- top_out -->
<g id="node6" class="node"><title>top_out</title>
<ellipse style="fill:none;stroke:black;" cx="311" cy="-18" rx="47.9469" ry="18"/>
<text text-anchor="middle" x="311" y="-13.9" style="font-family:Times New Roman;font-size:14.00;">top_out</text>
</g>
<!-- 0&#45;&gt;top_out -->
<g id="edge4" class="edge"><title>0&#45;&gt;top_out</title>
<path style="fill:none;stroke:black;" d="M346,-63C342,-57 336,-50 331,-43"/>
<polygon style="fill:black;stroke:black;" points="333.8,-40.9 325,-35 328.2,-45.1 333.8,-40.9"/>
</g>
<!-- _O -->
<g id="node7" class="node"><title>_O</title>
<polygon style="fill:none;stroke:black;" points="506,-90 439.986,-63 572.014,-63 506,-90"/>
<text text-anchor="middle" x="506" y="-67.9" style="font-family:Times New Roman;font-size:14.00;">top^out~1</text>
</g>
<!-- 1 -->
<g id="node9" class="node"><title>1</title>
<polygon style="fill:none;stroke:black;" points="197,-90 128.012,-63 265.988,-63 197,-90"/>
<text text-anchor="middle" x="197" y="-67.9" style="font-family:Times New Roman;font-size:14.00;">top^a_in~1</text>
</g>
<!-- 1&#45;&gt;top_FF_NODE -->
<g id="edge12" class="edge"><title>1&#45;&gt;top_FF_NODE</title>
<path style="fill:none;stroke:black;" d="M185,-63C177,-57 167,-49 157,-41"/>
<polygon style="fill:black;stroke:black;" points="159.1,-38.2 149,-35 154.9,-43.8 159.1,-38.2"/>
</g>
<!-- 1&#45;&gt;top_out -->
<g id="edge8" class="edge"><title>1&#45;&gt;top_out</title>
<path style="fill:none;stroke:black;" d="M216,-63C231,-56 253,-46 272,-36"/>
<polygon style="fill:black;stroke:black;" points="273.283,-39.2598 281,-32 270.44,-32.8631 273.283,-39.2598"/>
</g>
<!-- top_reset_n -->
<g id="node11" class="node"><title>top_reset_n</title>
<polygon style="fill:none;stroke:black;" points="658,-90 589.902,-63 726.098,-63 658,-90"/>
<text text-anchor="middle" x="658" y="-67.9" style="font-family:Times New Roman;font-size:14.00;">top_reset_n</text>
</g>
<!-- top_a_in -->
<g id="node12" class="node"><title>top_a_in</title>
<ellipse style="fill:none;stroke:black;" cx="796" cy="-72" rx="52.1162" ry="18"/>
<text text-anchor="middle" x="796" y="-67.9" style="font-family:Times New Roman;font-size:14.00;">top_a_in</text>
</g>
<!-- gnd -->
<g id="node15" class="node"><title>gnd</title>
<ellipse style="fill:none;stroke:black;" cx="900" cy="-72" rx="34.0492" ry="18"/>
<text text-anchor="middle" x="900" y="-67.9" style="font-family:Times New Roman;font-size:14.00;">&#45;1:&#45;1</text>
</g>
<!-- vcc -->
<g id="node16" class="node"><title>vcc</title>
<ellipse style="fill:none;stroke:black;" cx="986" cy="-72" rx="34.0492" ry="18"/>
<text text-anchor="middle" x="986" y="-67.9" style="font-family:Times New Roman;font-size:14.00;">&#45;1:&#45;1</text>
</g>
</g>
</svg>
