<?xml version="1.0" encoding="UTF-8" standalone="no"?>
<!DOCTYPE svg PUBLIC "-//W3C//DTD SVG 1.0//EN"
 "http://www.w3.org/TR/2001/REC-SVG-20010904/DTD/svg10.dtd" [
 <!ATTLIST svg xmlns:xlink CDATA #FIXED "http://www.w3.org/1999/xlink">
]>
<!-- Generated by Graphviz version 2.20.2 (Wed Sep 16 11:12:11 UTC 2009)
     For user: (shubham) shubham,,, -->
<!-- Title: G Pages: 1 -->
<svg width="956pt" height="98pt"
 viewBox="0.00 0.00 956.00 98.00" xmlns="http://www.w3.org/2000/svg" xmlns:xlink="http://www.w3.org/1999/xlink">
<g id="graph0" class="graph" transform="scale(1 1) rotate(0) translate(4 94)">
<title>G</title>
<polygon style="fill:white;stroke:white;" points="-4,4 -4,-94 952,-94 952,4 -4,4"/>
<!-- top_clock -->
<g id="node1" class="node"><title>top_clock</title>
<polygon style="fill:none;stroke:black;" points="55,-90 -0.0897674,-63 110.09,-63 55,-90"/>
<text text-anchor="middle" x="55" y="-67.9" style="font-family:Times New Roman;font-size:14.00;">top_clock</text>
</g>
<!-- top_FF_NODE -->
<g id="node3" class="node"><title>top_FF_NODE</title>
<ellipse style="fill:none;stroke:black;" cx="124" cy="-18" rx="77.8268" ry="18"/>
<text text-anchor="middle" x="124" y="-13.9" style="font-family:Times New Roman;font-size:14.00;">top_FF_NODE</text>
</g>
<!-- top_clock&#45;&gt;top_FF_NODE -->
<g id="edge2" class="edge"><title>top_clock&#45;&gt;top_FF_NODE</title>
<path style="fill:none;stroke:black;" d="M61,-63C67,-57 77,-49 88,-41"/>
<polygon style="fill:black;stroke:black;" points="90.1,-43.8 96,-35 85.9,-38.2 90.1,-43.8"/>
</g>
<!-- top_clock&#45;&gt;top_FF_NODE -->
<g id="edge6" class="edge"><title>top_clock&#45;&gt;top_FF_NODE</title>
<path style="fill:none;stroke:black;" d="M72,-63C81,-57 91,-49 100,-42"/>
<polygon style="fill:black;stroke:black;" points="102.1,-44.8 108,-36 97.9,-39.2 102.1,-44.8"/>
</g>
<!-- 0 -->
<g id="node4" class="node"><title>0</title>
<polygon style="fill:none;stroke:black;" points="344,-90 277.986,-63 410.014,-63 344,-90"/>
<text text-anchor="middle" x="344" y="-67.9" style="font-family:Times New Roman;font-size:14.00;">top^out~0</text>
</g>
<!-- 0&#45;&gt;top_FF_NODE -->
<g id="edge10" class="edge"><title>0&#45;&gt;top_FF_NODE</title>
<path style="fill:none;stroke:black;" d="M307,-63C275,-56 227,-43 188,-34"/>
<polygon style="fill:black;stroke:black;" points="188.584,-30.5212 178,-31 186.573,-37.2259 188.584,-30.5212"/>
</g>
<!-- top_out -->
<g id="node6" class="node"><title>top_out</title>
<ellipse style="fill:none;stroke:black;" cx="306" cy="-18" rx="47.9469" ry="18"/>
<text text-anchor="middle" x="306" y="-13.9" style="font-family:Times New Roman;font-size:14.00;">top_out</text>
</g>
<!-- 0&#45;&gt;top_out -->
<g id="edge4" class="edge"><title>0&#45;&gt;top_out</title>
<path style="fill:none;stroke:black;" d="M337,-63C333,-57 328,-51 324,-44"/>
<polygon style="fill:black;stroke:black;" points="326.8,-41.9 318,-36 321.2,-46.1 326.8,-41.9"/>
</g>
<!-- _O -->
<g id="node7" class="node"><title>_O</title>
<polygon style="fill:none;stroke:black;" points="464,-90 427.866,-63 500.134,-63 464,-90"/>
<text text-anchor="middle" x="464" y="-67.9" style="font-family:Times New Roman;font-size:14.00;">(null)</text>
</g>
<!-- 1 -->
<g id="node9" class="node"><title>1</title>
<polygon style="fill:none;stroke:black;" points="194,-90 127.986,-63 260.014,-63 194,-90"/>
<text text-anchor="middle" x="194" y="-67.9" style="font-family:Times New Roman;font-size:14.00;">top^out~1</text>
</g>
<!-- 1&#45;&gt;top_FF_NODE -->
<g id="edge12" class="edge"><title>1&#45;&gt;top_FF_NODE</title>
<path style="fill:none;stroke:black;" d="M182,-63C174,-57 164,-49 155,-41"/>
<polygon style="fill:black;stroke:black;" points="157.1,-38.2 147,-35 152.9,-43.8 157.1,-38.2"/>
</g>
<!-- 1&#45;&gt;top_out -->
<g id="edge8" class="edge"><title>1&#45;&gt;top_out</title>
<path style="fill:none;stroke:black;" d="M213,-63C228,-56 250,-46 268,-36"/>
<polygon style="fill:black;stroke:black;" points="269.283,-39.2598 277,-32 266.44,-32.8631 269.283,-39.2598"/>
</g>
<!-- top_reset_n -->
<g id="node11" class="node"><title>top_reset_n</title>
<polygon style="fill:none;stroke:black;" points="586,-90 517.902,-63 654.098,-63 586,-90"/>
<text text-anchor="middle" x="586" y="-67.9" style="font-family:Times New Roman;font-size:14.00;">top_reset_n</text>
</g>
<!-- top_a_in -->
<g id="node12" class="node"><title>top_a_in</title>
<ellipse style="fill:none;stroke:black;" cx="724" cy="-72" rx="52.1162" ry="18"/>
<text text-anchor="middle" x="724" y="-67.9" style="font-family:Times New Roman;font-size:14.00;">top_a_in</text>
</g>
<!-- top_ZERO_GND_ZERO -->
<g id="node15" class="node"><title>top_ZERO_GND_ZERO</title>
<ellipse style="fill:none;stroke:black;" cx="828" cy="-72" rx="34.0492" ry="18"/>
<text text-anchor="middle" x="828" y="-67.9" style="font-family:Times New Roman;font-size:14.00;">&#45;1:&#45;1</text>
</g>
<!-- top_ONE_VCC_CNS -->
<g id="node16" class="node"><title>top_ONE_VCC_CNS</title>
<ellipse style="fill:none;stroke:black;" cx="914" cy="-72" rx="34.0492" ry="18"/>
<text text-anchor="middle" x="914" y="-67.9" style="font-family:Times New Roman;font-size:14.00;">&#45;1:&#45;1</text>
</g>
</g>
</svg>
